<mxfile host="app.diagrams.net" modified="2024-06-24T05:23:48.615Z" agent="Mozilla/5.0 (X11; Ubuntu; Linux x86_64; rv:127.0) Gecko/20100101 Firefox/127.0" etag="OYxK1z7emog8b--Vqc2M" version="24.6.2" type="device">
  <diagram name="Seite-1" id="Ui5X7ERKxA4NzkQ9V5Dt">
    <mxGraphModel dx="2093" dy="1981" grid="1" gridSize="10" guides="1" tooltips="1" connect="1" arrows="1" fold="1" page="1" pageScale="1" pageWidth="827" pageHeight="1169" math="0" shadow="0">
      <root>
        <mxCell id="0" />
        <mxCell id="1" parent="0" />
        <mxCell id="OCs3PD1S2fVgXAxMt-b9-1" value="Scanner (DDR)" style="swimlane;whiteSpace=wrap;html=1;fillColor=default;" parent="1" vertex="1">
          <mxGeometry x="120" y="189" width="2120" height="760" as="geometry" />
        </mxCell>
        <mxCell id="OCs3PD1S2fVgXAxMt-b9-2" style="edgeStyle=orthogonalEdgeStyle;rounded=0;orthogonalLoop=1;jettySize=auto;html=1;exitX=1;exitY=0.5;exitDx=0;exitDy=0;" parent="OCs3PD1S2fVgXAxMt-b9-1" source="OCs3PD1S2fVgXAxMt-b9-3" edge="1">
          <mxGeometry relative="1" as="geometry">
            <mxPoint x="290" y="75" as="targetPoint" />
          </mxGeometry>
        </mxCell>
        <mxCell id="OCs3PD1S2fVgXAxMt-b9-3" value="receive ddr scan&lt;br&gt;&amp;nbsp;from&lt;br&gt;scan topic" style="shape=parallelogram;perimeter=parallelogramPerimeter;whiteSpace=wrap;html=1;fixedSize=1;fillColor=#dae8fc;strokeColor=#6c8ebf;" parent="OCs3PD1S2fVgXAxMt-b9-1" vertex="1">
          <mxGeometry x="110" y="40" width="140" height="70" as="geometry" />
        </mxCell>
        <mxCell id="OCs3PD1S2fVgXAxMt-b9-4" value="query _dns.resoler.arpa (type64) using &lt;b&gt;UDP&lt;/b&gt; on port 53" style="rounded=1;whiteSpace=wrap;html=1;fillColor=#fff2cc;strokeColor=#d6b656;" parent="OCs3PD1S2fVgXAxMt-b9-1" vertex="1">
          <mxGeometry x="290" y="45" width="120" height="60" as="geometry" />
        </mxCell>
        <mxCell id="OCs3PD1S2fVgXAxMt-b9-5" style="edgeStyle=orthogonalEdgeStyle;rounded=0;orthogonalLoop=1;jettySize=auto;html=1;exitX=0.5;exitY=1;exitDx=0;exitDy=0;entryX=0.5;entryY=0;entryDx=0;entryDy=0;" parent="OCs3PD1S2fVgXAxMt-b9-1" source="OCs3PD1S2fVgXAxMt-b9-7" target="OCs3PD1S2fVgXAxMt-b9-36" edge="1">
          <mxGeometry relative="1" as="geometry">
            <mxPoint x="299.9999999999999" y="480" as="sourcePoint" />
          </mxGeometry>
        </mxCell>
        <mxCell id="OCs3PD1S2fVgXAxMt-b9-6" value="no" style="edgeLabel;html=1;align=center;verticalAlign=middle;resizable=0;points=[];" parent="OCs3PD1S2fVgXAxMt-b9-5" vertex="1" connectable="0">
          <mxGeometry x="-0.3043" relative="1" as="geometry">
            <mxPoint x="14" as="offset" />
          </mxGeometry>
        </mxCell>
        <mxCell id="OCs3PD1S2fVgXAxMt-b9-7" value="TC in header set?" style="rhombus;whiteSpace=wrap;html=1;" parent="OCs3PD1S2fVgXAxMt-b9-1" vertex="1">
          <mxGeometry x="210" y="390" width="120" height="90" as="geometry" />
        </mxCell>
        <mxCell id="OCs3PD1S2fVgXAxMt-b9-8" value="query _dns.resoler.arpa (type64) using &lt;b&gt;TCP&lt;/b&gt; on port 53" style="rounded=1;whiteSpace=wrap;html=1;fillColor=#fff2cc;strokeColor=#d6b656;" parent="OCs3PD1S2fVgXAxMt-b9-1" vertex="1">
          <mxGeometry x="30" y="405" width="120" height="60" as="geometry" />
        </mxCell>
        <mxCell id="OCs3PD1S2fVgXAxMt-b9-9" style="edgeStyle=orthogonalEdgeStyle;rounded=0;orthogonalLoop=1;jettySize=auto;html=1;exitX=0;exitY=0.5;exitDx=0;exitDy=0;entryX=1;entryY=0.5;entryDx=0;entryDy=0;" parent="OCs3PD1S2fVgXAxMt-b9-1" source="OCs3PD1S2fVgXAxMt-b9-7" target="OCs3PD1S2fVgXAxMt-b9-8" edge="1">
          <mxGeometry relative="1" as="geometry" />
        </mxCell>
        <mxCell id="OCs3PD1S2fVgXAxMt-b9-10" value="yes" style="edgeLabel;html=1;align=center;verticalAlign=middle;resizable=0;points=[];" parent="OCs3PD1S2fVgXAxMt-b9-9" vertex="1" connectable="0">
          <mxGeometry x="-0.2429" y="-1" relative="1" as="geometry">
            <mxPoint x="-5" y="-8" as="offset" />
          </mxGeometry>
        </mxCell>
        <mxCell id="OCs3PD1S2fVgXAxMt-b9-11" style="edgeStyle=orthogonalEdgeStyle;rounded=0;orthogonalLoop=1;jettySize=auto;html=1;exitX=0.5;exitY=1;exitDx=0;exitDy=0;entryX=0.5;entryY=0;entryDx=0;entryDy=0;" parent="OCs3PD1S2fVgXAxMt-b9-1" source="OCs3PD1S2fVgXAxMt-b9-13" target="OCs3PD1S2fVgXAxMt-b9-7" edge="1">
          <mxGeometry relative="1" as="geometry" />
        </mxCell>
        <mxCell id="OCs3PD1S2fVgXAxMt-b9-12" value="no" style="edgeLabel;html=1;align=center;verticalAlign=middle;resizable=0;points=[];" parent="OCs3PD1S2fVgXAxMt-b9-11" vertex="1" connectable="0">
          <mxGeometry x="-0.4971" relative="1" as="geometry">
            <mxPoint x="10" as="offset" />
          </mxGeometry>
        </mxCell>
        <mxCell id="OCs3PD1S2fVgXAxMt-b9-13" value="Timeout?&lt;div&gt;(2500ms)&lt;/div&gt;" style="rhombus;whiteSpace=wrap;html=1;" parent="OCs3PD1S2fVgXAxMt-b9-1" vertex="1">
          <mxGeometry x="210" y="260" width="120" height="90" as="geometry" />
        </mxCell>
        <mxCell id="OCs3PD1S2fVgXAxMt-b9-14" style="edgeStyle=orthogonalEdgeStyle;rounded=0;orthogonalLoop=1;jettySize=auto;html=1;exitX=0.5;exitY=1;exitDx=0;exitDy=0;entryX=0.5;entryY=0;entryDx=0;entryDy=0;" parent="OCs3PD1S2fVgXAxMt-b9-1" source="OCs3PD1S2fVgXAxMt-b9-4" target="OCs3PD1S2fVgXAxMt-b9-13" edge="1">
          <mxGeometry relative="1" as="geometry" />
        </mxCell>
        <mxCell id="OCs3PD1S2fVgXAxMt-b9-15" style="edgeStyle=orthogonalEdgeStyle;rounded=0;orthogonalLoop=1;jettySize=auto;html=1;exitX=0.5;exitY=1;exitDx=0;exitDy=0;entryX=0.5;entryY=0;entryDx=0;entryDy=0;" parent="OCs3PD1S2fVgXAxMt-b9-1" source="OCs3PD1S2fVgXAxMt-b9-17" target="OCs3PD1S2fVgXAxMt-b9-8" edge="1">
          <mxGeometry relative="1" as="geometry" />
        </mxCell>
        <mxCell id="OCs3PD1S2fVgXAxMt-b9-16" value="yes" style="edgeLabel;html=1;align=center;verticalAlign=middle;resizable=0;points=[];" parent="OCs3PD1S2fVgXAxMt-b9-15" vertex="1" connectable="0">
          <mxGeometry x="-0.1" y="1" relative="1" as="geometry">
            <mxPoint x="9" as="offset" />
          </mxGeometry>
        </mxCell>
        <mxCell id="OCs3PD1S2fVgXAxMt-b9-17" value="Retried &lt;br&gt;UDP&lt;br&gt;3 times?" style="rhombus;whiteSpace=wrap;html=1;" parent="OCs3PD1S2fVgXAxMt-b9-1" vertex="1">
          <mxGeometry x="30" y="260" width="120" height="90" as="geometry" />
        </mxCell>
        <mxCell id="OCs3PD1S2fVgXAxMt-b9-18" style="edgeStyle=orthogonalEdgeStyle;rounded=0;orthogonalLoop=1;jettySize=auto;html=1;exitX=0;exitY=0.5;exitDx=0;exitDy=0;entryX=1;entryY=0.5;entryDx=0;entryDy=0;" parent="OCs3PD1S2fVgXAxMt-b9-1" source="OCs3PD1S2fVgXAxMt-b9-13" target="OCs3PD1S2fVgXAxMt-b9-17" edge="1">
          <mxGeometry relative="1" as="geometry" />
        </mxCell>
        <mxCell id="OCs3PD1S2fVgXAxMt-b9-19" value="yes" style="edgeLabel;html=1;align=center;verticalAlign=middle;resizable=0;points=[];" parent="OCs3PD1S2fVgXAxMt-b9-18" vertex="1" connectable="0">
          <mxGeometry x="-0.3" y="3" relative="1" as="geometry">
            <mxPoint x="-9" y="-13" as="offset" />
          </mxGeometry>
        </mxCell>
        <mxCell id="OCs3PD1S2fVgXAxMt-b9-20" style="edgeStyle=orthogonalEdgeStyle;rounded=0;orthogonalLoop=1;jettySize=auto;html=1;exitX=1;exitY=0.5;exitDx=0;exitDy=0;entryX=0;entryY=0.5;entryDx=0;entryDy=0;" parent="OCs3PD1S2fVgXAxMt-b9-1" source="OCs3PD1S2fVgXAxMt-b9-21" target="OCs3PD1S2fVgXAxMt-b9-4" edge="1">
          <mxGeometry relative="1" as="geometry">
            <Array as="points">
              <mxPoint x="260" y="175" />
              <mxPoint x="260" y="75" />
            </Array>
          </mxGeometry>
        </mxCell>
        <mxCell id="OCs3PD1S2fVgXAxMt-b9-21" value="apply exponential backoff time" style="rounded=1;whiteSpace=wrap;html=1;fillColor=#f5f5f5;strokeColor=#666666;fontColor=#333333;" parent="OCs3PD1S2fVgXAxMt-b9-1" vertex="1">
          <mxGeometry x="30" y="150" width="120" height="50" as="geometry" />
        </mxCell>
        <mxCell id="OCs3PD1S2fVgXAxMt-b9-22" value="no" style="edgeStyle=orthogonalEdgeStyle;rounded=0;orthogonalLoop=1;jettySize=auto;html=1;exitX=0.5;exitY=0;exitDx=0;exitDy=0;entryX=0.5;entryY=1;entryDx=0;entryDy=0;" parent="OCs3PD1S2fVgXAxMt-b9-1" source="OCs3PD1S2fVgXAxMt-b9-17" target="OCs3PD1S2fVgXAxMt-b9-21" edge="1">
          <mxGeometry y="-10" relative="1" as="geometry">
            <mxPoint as="offset" />
          </mxGeometry>
        </mxCell>
        <mxCell id="OCs3PD1S2fVgXAxMt-b9-23" value="&lt;div&gt;Timeout?&lt;/div&gt;&lt;div&gt;(2500ms)&lt;br&gt;&lt;/div&gt;" style="rhombus;whiteSpace=wrap;html=1;" parent="OCs3PD1S2fVgXAxMt-b9-1" vertex="1">
          <mxGeometry x="30" y="510" width="120" height="90" as="geometry" />
        </mxCell>
        <mxCell id="OCs3PD1S2fVgXAxMt-b9-24" style="edgeStyle=orthogonalEdgeStyle;rounded=0;orthogonalLoop=1;jettySize=auto;html=1;exitX=0.5;exitY=1;exitDx=0;exitDy=0;entryX=0.5;entryY=0;entryDx=0;entryDy=0;" parent="OCs3PD1S2fVgXAxMt-b9-1" source="OCs3PD1S2fVgXAxMt-b9-8" target="OCs3PD1S2fVgXAxMt-b9-23" edge="1">
          <mxGeometry relative="1" as="geometry" />
        </mxCell>
        <mxCell id="OCs3PD1S2fVgXAxMt-b9-25" style="edgeStyle=orthogonalEdgeStyle;rounded=0;orthogonalLoop=1;jettySize=auto;html=1;exitX=0.5;exitY=1;exitDx=0;exitDy=0;entryX=0;entryY=0.5;entryDx=0;entryDy=0;" parent="OCs3PD1S2fVgXAxMt-b9-1" source="OCs3PD1S2fVgXAxMt-b9-23" target="OCs3PD1S2fVgXAxMt-b9-40" edge="1">
          <mxGeometry relative="1" as="geometry">
            <mxPoint x="89.99999999999989" y="650" as="targetPoint" />
          </mxGeometry>
        </mxCell>
        <mxCell id="OCs3PD1S2fVgXAxMt-b9-26" value="yes" style="edgeLabel;html=1;align=center;verticalAlign=middle;resizable=0;points=[];" parent="OCs3PD1S2fVgXAxMt-b9-25" vertex="1" connectable="0">
          <mxGeometry x="-0.3231" y="1" relative="1" as="geometry">
            <mxPoint x="39" y="-9" as="offset" />
          </mxGeometry>
        </mxCell>
        <mxCell id="OCs3PD1S2fVgXAxMt-b9-27" style="edgeStyle=orthogonalEdgeStyle;rounded=0;orthogonalLoop=1;jettySize=auto;html=1;exitX=1;exitY=0.5;exitDx=0;exitDy=0;entryX=0;entryY=0.5;entryDx=0;entryDy=0;" parent="OCs3PD1S2fVgXAxMt-b9-1" source="OCs3PD1S2fVgXAxMt-b9-23" target="OCs3PD1S2fVgXAxMt-b9-36" edge="1">
          <mxGeometry relative="1" as="geometry" />
        </mxCell>
        <mxCell id="OCs3PD1S2fVgXAxMt-b9-28" value="no" style="edgeLabel;html=1;align=center;verticalAlign=middle;resizable=0;points=[];" parent="OCs3PD1S2fVgXAxMt-b9-27" vertex="1" connectable="0">
          <mxGeometry x="-0.0744" y="-1" relative="1" as="geometry">
            <mxPoint y="-16" as="offset" />
          </mxGeometry>
        </mxCell>
        <mxCell id="OCs3PD1S2fVgXAxMt-b9-29" style="edgeStyle=orthogonalEdgeStyle;rounded=0;orthogonalLoop=1;jettySize=auto;html=1;exitX=0.5;exitY=0;exitDx=0;exitDy=0;entryX=0.5;entryY=1;entryDx=0;entryDy=0;" parent="OCs3PD1S2fVgXAxMt-b9-1" source="OCs3PD1S2fVgXAxMt-b9-30" target="OCs3PD1S2fVgXAxMt-b9-45" edge="1">
          <mxGeometry relative="1" as="geometry" />
        </mxCell>
        <mxCell id="OCs3PD1S2fVgXAxMt-b9-30" value="produce fingerprint scan" style="rounded=1;whiteSpace=wrap;html=1;fillColor=#e1d5e7;strokeColor=#9673a6;" parent="OCs3PD1S2fVgXAxMt-b9-1" vertex="1">
          <mxGeometry x="370.09" y="465" width="89.91" height="50" as="geometry" />
        </mxCell>
        <mxCell id="OCs3PD1S2fVgXAxMt-b9-31" value="" style="edgeStyle=orthogonalEdgeStyle;rounded=0;orthogonalLoop=1;jettySize=auto;html=1;" parent="OCs3PD1S2fVgXAxMt-b9-1" source="OCs3PD1S2fVgXAxMt-b9-32" target="OCs3PD1S2fVgXAxMt-b9-3" edge="1">
          <mxGeometry relative="1" as="geometry" />
        </mxCell>
        <mxCell id="OCs3PD1S2fVgXAxMt-b9-32" value="" style="ellipse;whiteSpace=wrap;html=1;aspect=fixed;fillColor=#000000;" parent="OCs3PD1S2fVgXAxMt-b9-1" vertex="1">
          <mxGeometry x="30" y="60" width="30" height="30" as="geometry" />
        </mxCell>
        <mxCell id="OCs3PD1S2fVgXAxMt-b9-33" value="" style="ellipse;whiteSpace=wrap;html=1;aspect=fixed;fillColor=#ffffff;" parent="OCs3PD1S2fVgXAxMt-b9-1" vertex="1">
          <mxGeometry x="240" y="721" width="30" height="30" as="geometry" />
        </mxCell>
        <mxCell id="OCs3PD1S2fVgXAxMt-b9-34" value="" style="ellipse;whiteSpace=wrap;html=1;aspect=fixed;fillColor=#000000;" parent="OCs3PD1S2fVgXAxMt-b9-1" vertex="1">
          <mxGeometry x="245" y="726" width="20" height="20" as="geometry" />
        </mxCell>
        <mxCell id="OCs3PD1S2fVgXAxMt-b9-35" style="edgeStyle=orthogonalEdgeStyle;rounded=0;orthogonalLoop=1;jettySize=auto;html=1;exitX=1;exitY=0.5;exitDx=0;exitDy=0;entryX=0;entryY=0.5;entryDx=0;entryDy=0;" parent="OCs3PD1S2fVgXAxMt-b9-1" source="OCs3PD1S2fVgXAxMt-b9-36" target="OCs3PD1S2fVgXAxMt-b9-38" edge="1">
          <mxGeometry relative="1" as="geometry" />
        </mxCell>
        <mxCell id="OCs3PD1S2fVgXAxMt-b9-36" value="check for DNSSEC (NSEC, RRSIG, NSEC3)" style="rounded=1;whiteSpace=wrap;html=1;fillColor=#f5f5f5;strokeColor=#666666;fontColor=#333333;" parent="OCs3PD1S2fVgXAxMt-b9-1" vertex="1">
          <mxGeometry x="205" y="520" width="130" height="70" as="geometry" />
        </mxCell>
        <mxCell id="OCs3PD1S2fVgXAxMt-b9-37" style="edgeStyle=orthogonalEdgeStyle;rounded=0;orthogonalLoop=1;jettySize=auto;html=1;exitX=0.5;exitY=0;exitDx=0;exitDy=0;entryX=0.5;entryY=1;entryDx=0;entryDy=0;" parent="OCs3PD1S2fVgXAxMt-b9-1" source="OCs3PD1S2fVgXAxMt-b9-38" target="OCs3PD1S2fVgXAxMt-b9-30" edge="1">
          <mxGeometry relative="1" as="geometry" />
        </mxCell>
        <mxCell id="OCs3PD1S2fVgXAxMt-b9-38" value="query PTR" style="rounded=1;whiteSpace=wrap;html=1;fillColor=#fff2cc;strokeColor=#d6b656;" parent="OCs3PD1S2fVgXAxMt-b9-1" vertex="1">
          <mxGeometry x="370.09" y="530" width="90" height="50" as="geometry" />
        </mxCell>
        <mxCell id="OCs3PD1S2fVgXAxMt-b9-39" style="edgeStyle=orthogonalEdgeStyle;rounded=0;orthogonalLoop=1;jettySize=auto;html=1;exitX=0.5;exitY=1;exitDx=0;exitDy=0;entryX=0.5;entryY=0;entryDx=0;entryDy=0;" parent="OCs3PD1S2fVgXAxMt-b9-1" source="OCs3PD1S2fVgXAxMt-b9-40" target="OCs3PD1S2fVgXAxMt-b9-33" edge="1">
          <mxGeometry relative="1" as="geometry" />
        </mxCell>
        <mxCell id="OCs3PD1S2fVgXAxMt-b9-40" value="store result" style="shape=datastore;whiteSpace=wrap;html=1;" parent="OCs3PD1S2fVgXAxMt-b9-1" vertex="1">
          <mxGeometry x="225" y="640" width="60" height="60" as="geometry" />
        </mxCell>
        <mxCell id="OCs3PD1S2fVgXAxMt-b9-41" style="edgeStyle=orthogonalEdgeStyle;rounded=0;orthogonalLoop=1;jettySize=auto;html=1;exitX=0.5;exitY=0;exitDx=0;exitDy=0;entryX=0.5;entryY=1;entryDx=0;entryDy=0;" parent="OCs3PD1S2fVgXAxMt-b9-1" source="OCs3PD1S2fVgXAxMt-b9-45" target="OCs3PD1S2fVgXAxMt-b9-46" edge="1">
          <mxGeometry relative="1" as="geometry">
            <mxPoint x="640.09" y="555" as="targetPoint" />
          </mxGeometry>
        </mxCell>
        <mxCell id="OCs3PD1S2fVgXAxMt-b9-42" value="yes" style="edgeLabel;html=1;align=center;verticalAlign=middle;resizable=0;points=[];" parent="OCs3PD1S2fVgXAxMt-b9-41" vertex="1" connectable="0">
          <mxGeometry x="-0.4641" y="1" relative="1" as="geometry">
            <mxPoint as="offset" />
          </mxGeometry>
        </mxCell>
        <mxCell id="OCs3PD1S2fVgXAxMt-b9-43" style="edgeStyle=orthogonalEdgeStyle;rounded=0;orthogonalLoop=1;jettySize=auto;html=1;exitX=1;exitY=0.5;exitDx=0;exitDy=0;entryX=1;entryY=0.5;entryDx=0;entryDy=0;" parent="OCs3PD1S2fVgXAxMt-b9-1" source="OCs3PD1S2fVgXAxMt-b9-45" target="OCs3PD1S2fVgXAxMt-b9-40" edge="1">
          <mxGeometry relative="1" as="geometry" />
        </mxCell>
        <mxCell id="OCs3PD1S2fVgXAxMt-b9-44" value="no" style="edgeLabel;html=1;align=center;verticalAlign=middle;resizable=0;points=[];" parent="OCs3PD1S2fVgXAxMt-b9-43" vertex="1" connectable="0">
          <mxGeometry x="-0.4454" y="-3" relative="1" as="geometry">
            <mxPoint as="offset" />
          </mxGeometry>
        </mxCell>
        <mxCell id="OCs3PD1S2fVgXAxMt-b9-45" value="DDR offered?" style="rhombus;whiteSpace=wrap;html=1;" parent="OCs3PD1S2fVgXAxMt-b9-1" vertex="1">
          <mxGeometry x="355.05" y="360" width="120" height="90" as="geometry" />
        </mxCell>
        <mxCell id="OCs3PD1S2fVgXAxMt-b9-46" value="parse DDR entries" style="rounded=1;whiteSpace=wrap;html=1;fillColor=#f5f5f5;strokeColor=#666666;fontColor=#333333;" parent="OCs3PD1S2fVgXAxMt-b9-1" vertex="1">
          <mxGeometry x="370.0899999999999" y="244.75" width="90" height="72.5" as="geometry" />
        </mxCell>
        <mxCell id="OCs3PD1S2fVgXAxMt-b9-47" style="edgeStyle=orthogonalEdgeStyle;rounded=0;orthogonalLoop=1;jettySize=auto;html=1;exitX=0.5;exitY=1;exitDx=0;exitDy=0;exitPerimeter=0;entryX=1;entryY=0.5;entryDx=0;entryDy=0;" parent="OCs3PD1S2fVgXAxMt-b9-1" source="OCs3PD1S2fVgXAxMt-b9-48" target="OCs3PD1S2fVgXAxMt-b9-40" edge="1">
          <mxGeometry relative="1" as="geometry" />
        </mxCell>
        <mxCell id="OCs3PD1S2fVgXAxMt-b9-48" value="" style="points=[[0.25,0,0],[0.5,0,0],[0.75,0,0],[1,0.25,0],[1,0.5,0],[1,0.75,0],[0.75,1,0],[0.5,1,0],[0.25,1,0],[0,0.75,0],[0,0.5,0],[0,0.25,0]];shape=mxgraph.bpmn.task;whiteSpace=wrap;rectStyle=rounded;size=10;html=1;container=1;expand=0;collapsible=0;taskMarker=abstract;isLoopStandard=1;shadow=0;fillColor=#FCFCFC;fontColor=#333333;strokeColor=#000000;" parent="OCs3PD1S2fVgXAxMt-b9-1" vertex="1">
          <mxGeometry x="550" y="81" width="1520" height="560" as="geometry" />
        </mxCell>
        <mxCell id="OCs3PD1S2fVgXAxMt-b9-49" value="" style="ellipse;whiteSpace=wrap;html=1;aspect=fixed;fillColor=#ffffff;" parent="OCs3PD1S2fVgXAxMt-b9-48" vertex="1">
          <mxGeometry x="624.9100000000001" y="20" width="30" height="30" as="geometry" />
        </mxCell>
        <mxCell id="OCs3PD1S2fVgXAxMt-b9-50" value="" style="ellipse;whiteSpace=wrap;html=1;aspect=fixed;fillColor=#000000;" parent="OCs3PD1S2fVgXAxMt-b9-48" vertex="1">
          <mxGeometry x="629.9100000000001" y="25" width="20" height="20" as="geometry" />
        </mxCell>
        <mxCell id="OCs3PD1S2fVgXAxMt-b9-51" value="for all SVCB records" style="rounded=1;whiteSpace=wrap;html=1;fillColor=#e3c800;fontColor=#000000;strokeColor=#B09500;" parent="OCs3PD1S2fVgXAxMt-b9-48" vertex="1">
          <mxGeometry width="270" height="30" as="geometry" />
        </mxCell>
        <mxCell id="OCs3PD1S2fVgXAxMt-b9-97" value="DoQ?" style="rhombus;whiteSpace=wrap;html=1;" parent="OCs3PD1S2fVgXAxMt-b9-48" vertex="1">
          <mxGeometry x="50" y="120" width="120" height="90" as="geometry" />
        </mxCell>
        <mxCell id="OCs3PD1S2fVgXAxMt-b9-107" value="create error for non-known&lt;div&gt;protocol&lt;/div&gt;" style="rounded=1;whiteSpace=wrap;html=1;fillColor=#f5f5f5;strokeColor=#666666;fontColor=#333333;" parent="OCs3PD1S2fVgXAxMt-b9-48" vertex="1">
          <mxGeometry x="270" y="60" width="90" height="72.5" as="geometry" />
        </mxCell>
        <mxCell id="OCs3PD1S2fVgXAxMt-b9-96" style="edgeStyle=orthogonalEdgeStyle;rounded=0;orthogonalLoop=1;jettySize=auto;html=1;exitX=0.5;exitY=0;exitDx=0;exitDy=0;" parent="OCs3PD1S2fVgXAxMt-b9-48" source="OCs3PD1S2fVgXAxMt-b9-97" target="OCs3PD1S2fVgXAxMt-b9-107" edge="1">
          <mxGeometry relative="1" as="geometry" />
        </mxCell>
        <mxCell id="OCs3PD1S2fVgXAxMt-b9-106" style="edgeStyle=orthogonalEdgeStyle;rounded=0;orthogonalLoop=1;jettySize=auto;html=1;exitX=1;exitY=0.5;exitDx=0;exitDy=0;entryX=0;entryY=0.5;entryDx=0;entryDy=0;" parent="OCs3PD1S2fVgXAxMt-b9-48" source="OCs3PD1S2fVgXAxMt-b9-107" target="OCs3PD1S2fVgXAxMt-b9-49" edge="1">
          <mxGeometry relative="1" as="geometry" />
        </mxCell>
        <mxCell id="OCs3PD1S2fVgXAxMt-b9-100" value="produce protocol scan to DoQ topic" style="rounded=1;whiteSpace=wrap;html=1;fillColor=#e1d5e7;strokeColor=#9673a6;" parent="OCs3PD1S2fVgXAxMt-b9-48" vertex="1">
          <mxGeometry x="354.89999999999986" y="140" width="120" height="50" as="geometry" />
        </mxCell>
        <mxCell id="OCs3PD1S2fVgXAxMt-b9-95" value="yes" style="edgeStyle=orthogonalEdgeStyle;rounded=0;orthogonalLoop=1;jettySize=auto;html=1;exitX=1;exitY=0.5;exitDx=0;exitDy=0;entryX=0;entryY=0.5;entryDx=0;entryDy=0;" parent="OCs3PD1S2fVgXAxMt-b9-48" source="OCs3PD1S2fVgXAxMt-b9-97" target="OCs3PD1S2fVgXAxMt-b9-100" edge="1">
          <mxGeometry relative="1" as="geometry" />
        </mxCell>
        <mxCell id="bzqzzSRLQrOWmeCuMzVM-59" style="edgeStyle=orthogonalEdgeStyle;rounded=0;orthogonalLoop=1;jettySize=auto;html=1;exitX=1;exitY=0.5;exitDx=0;exitDy=0;entryX=0;entryY=0.5;entryDx=0;entryDy=0;" edge="1" parent="OCs3PD1S2fVgXAxMt-b9-48" source="OCs3PD1S2fVgXAxMt-b9-98" target="OCs3PD1S2fVgXAxMt-b9-104">
          <mxGeometry relative="1" as="geometry" />
        </mxCell>
        <mxCell id="OCs3PD1S2fVgXAxMt-b9-98" value="produce protocol scan to DoH topic" style="rounded=1;whiteSpace=wrap;html=1;fillColor=#e1d5e7;strokeColor=#9673a6;" parent="OCs3PD1S2fVgXAxMt-b9-48" vertex="1">
          <mxGeometry x="219.9999999999999" y="430" width="120" height="50" as="geometry" />
        </mxCell>
        <mxCell id="bzqzzSRLQrOWmeCuMzVM-61" style="edgeStyle=orthogonalEdgeStyle;rounded=0;orthogonalLoop=1;jettySize=auto;html=1;exitX=0.5;exitY=0;exitDx=0;exitDy=0;entryX=0.5;entryY=1;entryDx=0;entryDy=0;" edge="1" parent="OCs3PD1S2fVgXAxMt-b9-48" source="OCs3PD1S2fVgXAxMt-b9-104" target="OCs3PD1S2fVgXAxMt-b9-105">
          <mxGeometry relative="1" as="geometry" />
        </mxCell>
        <mxCell id="bzqzzSRLQrOWmeCuMzVM-62" value="yes" style="edgeLabel;html=1;align=center;verticalAlign=middle;resizable=0;points=[];" vertex="1" connectable="0" parent="bzqzzSRLQrOWmeCuMzVM-61">
          <mxGeometry x="0.1645" y="1" relative="1" as="geometry">
            <mxPoint x="1" y="6" as="offset" />
          </mxGeometry>
        </mxCell>
        <mxCell id="OCs3PD1S2fVgXAxMt-b9-104" value="ODoH param?" style="rhombus;whiteSpace=wrap;html=1;" parent="OCs3PD1S2fVgXAxMt-b9-48" vertex="1">
          <mxGeometry x="354.89999999999986" y="410" width="120" height="90" as="geometry" />
        </mxCell>
        <mxCell id="OCs3PD1S2fVgXAxMt-b9-105" value="produce protocol scan to ODoH topic [&lt;span style=&quot;color: rgb(51, 51, 51);&quot;&gt;RFC9540]&lt;/span&gt;" style="rounded=1;whiteSpace=wrap;html=1;fillColor=#e1d5e7;strokeColor=#9673a6;" parent="OCs3PD1S2fVgXAxMt-b9-48" vertex="1">
          <mxGeometry x="354.89999999999986" y="330" width="120" height="50" as="geometry" />
        </mxCell>
        <mxCell id="OCs3PD1S2fVgXAxMt-b9-53" style="edgeStyle=orthogonalEdgeStyle;rounded=0;orthogonalLoop=1;jettySize=auto;html=1;exitX=0.5;exitY=0;exitDx=0;exitDy=0;exitPerimeter=0;entryX=1;entryY=0.5;entryDx=0;entryDy=0;" parent="OCs3PD1S2fVgXAxMt-b9-1" source="OCs3PD1S2fVgXAxMt-b9-54" target="OCs3PD1S2fVgXAxMt-b9-49" edge="1">
          <mxGeometry relative="1" as="geometry" />
        </mxCell>
        <mxCell id="OCs3PD1S2fVgXAxMt-b9-54" value="" style="points=[[0.25,0,0],[0.5,0,0],[0.75,0,0],[1,0.25,0],[1,0.5,0],[1,0.75,0],[0.75,1,0],[0.5,1,0],[0.25,1,0],[0,0.75,0],[0,0.5,0],[0,0.25,0]];shape=mxgraph.bpmn.task;whiteSpace=wrap;rectStyle=rounded;size=10;html=1;container=1;expand=0;collapsible=0;taskMarker=abstract;isLoopStandard=1;fillColor=#FCFCFC;strokeColor=default;strokeWidth=1;" parent="OCs3PD1S2fVgXAxMt-b9-1" vertex="1">
          <mxGeometry x="1123" y="151" width="880" height="431" as="geometry" />
        </mxCell>
        <mxCell id="OCs3PD1S2fVgXAxMt-b9-55" value="for all ipv4hints, ipv6hints" style="rounded=1;whiteSpace=wrap;html=1;fillColor=#e3c800;fontColor=#000000;strokeColor=#B09500;" parent="OCs3PD1S2fVgXAxMt-b9-54" vertex="1">
          <mxGeometry width="210" height="30" as="geometry" />
        </mxCell>
        <mxCell id="OCs3PD1S2fVgXAxMt-b9-57" value="" style="ellipse;whiteSpace=wrap;html=1;aspect=fixed;fillColor=#000000;" parent="OCs3PD1S2fVgXAxMt-b9-54" vertex="1">
          <mxGeometry x="94.49864864864867" y="365" width="30" height="30" as="geometry" />
        </mxCell>
        <mxCell id="OCs3PD1S2fVgXAxMt-b9-58" style="edgeStyle=orthogonalEdgeStyle;rounded=0;orthogonalLoop=1;jettySize=auto;html=1;exitX=1;exitY=0.5;exitDx=0;exitDy=0;entryX=0;entryY=0.5;entryDx=0;entryDy=0;" parent="OCs3PD1S2fVgXAxMt-b9-54" source="OCs3PD1S2fVgXAxMt-b9-61" target="OCs3PD1S2fVgXAxMt-b9-63" edge="1">
          <mxGeometry relative="1" as="geometry" />
        </mxCell>
        <mxCell id="OCs3PD1S2fVgXAxMt-b9-59" value="yes" style="edgeLabel;html=1;align=center;verticalAlign=middle;resizable=0;points=[];" parent="OCs3PD1S2fVgXAxMt-b9-58" vertex="1" connectable="0">
          <mxGeometry x="0.0622" relative="1" as="geometry">
            <mxPoint x="-6" y="-10" as="offset" />
          </mxGeometry>
        </mxCell>
        <mxCell id="OCs3PD1S2fVgXAxMt-b9-60" value="no" style="edgeStyle=orthogonalEdgeStyle;rounded=0;orthogonalLoop=1;jettySize=auto;html=1;exitX=0.5;exitY=0;exitDx=0;exitDy=0;entryX=0.5;entryY=1;entryDx=0;entryDy=0;" parent="OCs3PD1S2fVgXAxMt-b9-54" source="OCs3PD1S2fVgXAxMt-b9-61" target="OCs3PD1S2fVgXAxMt-b9-67" edge="1">
          <mxGeometry relative="1" as="geometry" />
        </mxCell>
        <mxCell id="OCs3PD1S2fVgXAxMt-b9-61" value="ipv4hint provided?" style="rhombus;whiteSpace=wrap;html=1;" parent="OCs3PD1S2fVgXAxMt-b9-54" vertex="1">
          <mxGeometry x="64.5" y="230" width="90" height="90" as="geometry" />
        </mxCell>
        <mxCell id="OCs3PD1S2fVgXAxMt-b9-62" style="edgeStyle=orthogonalEdgeStyle;rounded=0;orthogonalLoop=1;jettySize=auto;html=1;exitX=1;exitY=0.5;exitDx=0;exitDy=0;entryX=0;entryY=0.5;entryDx=0;entryDy=0;" parent="OCs3PD1S2fVgXAxMt-b9-54" source="OCs3PD1S2fVgXAxMt-b9-63" target="OCs3PD1S2fVgXAxMt-b9-80" edge="1">
          <mxGeometry relative="1" as="geometry" />
        </mxCell>
        <mxCell id="OCs3PD1S2fVgXAxMt-b9-63" value="query targetName (type A)" style="rounded=1;whiteSpace=wrap;html=1;fillColor=#fff2cc;strokeColor=#d6b656;" parent="OCs3PD1S2fVgXAxMt-b9-54" vertex="1">
          <mxGeometry x="204.5" y="245" width="120" height="60" as="geometry" />
        </mxCell>
        <mxCell id="OCs3PD1S2fVgXAxMt-b9-64" style="edgeStyle=orthogonalEdgeStyle;rounded=0;orthogonalLoop=1;jettySize=auto;html=1;exitX=1;exitY=0.5;exitDx=0;exitDy=0;entryX=0;entryY=0.5;entryDx=0;entryDy=0;" parent="OCs3PD1S2fVgXAxMt-b9-54" source="OCs3PD1S2fVgXAxMt-b9-67" target="OCs3PD1S2fVgXAxMt-b9-69" edge="1">
          <mxGeometry relative="1" as="geometry" />
        </mxCell>
        <mxCell id="OCs3PD1S2fVgXAxMt-b9-65" value="yes" style="edgeLabel;html=1;align=center;verticalAlign=middle;resizable=0;points=[];" parent="OCs3PD1S2fVgXAxMt-b9-64" vertex="1" connectable="0">
          <mxGeometry x="-0.1156" y="-1" relative="1" as="geometry">
            <mxPoint x="-2" y="-9" as="offset" />
          </mxGeometry>
        </mxCell>
        <mxCell id="OCs3PD1S2fVgXAxMt-b9-66" style="edgeStyle=orthogonalEdgeStyle;rounded=0;orthogonalLoop=1;jettySize=auto;html=1;exitX=0.5;exitY=0;exitDx=0;exitDy=0;entryX=0.5;entryY=0;entryDx=0;entryDy=0;" parent="OCs3PD1S2fVgXAxMt-b9-54" source="OCs3PD1S2fVgXAxMt-b9-67" target="OCs3PD1S2fVgXAxMt-b9-83" edge="1">
          <mxGeometry relative="1" as="geometry" />
        </mxCell>
        <mxCell id="OCs3PD1S2fVgXAxMt-b9-67" value="ipv6hint provided?" style="rhombus;whiteSpace=wrap;html=1;" parent="OCs3PD1S2fVgXAxMt-b9-54" vertex="1">
          <mxGeometry x="64.5" y="80" width="90" height="90" as="geometry" />
        </mxCell>
        <mxCell id="OCs3PD1S2fVgXAxMt-b9-68" style="edgeStyle=orthogonalEdgeStyle;rounded=0;orthogonalLoop=1;jettySize=auto;html=1;exitX=1;exitY=0.5;exitDx=0;exitDy=0;entryX=0;entryY=0.5;entryDx=0;entryDy=0;" parent="OCs3PD1S2fVgXAxMt-b9-54" source="OCs3PD1S2fVgXAxMt-b9-69" target="OCs3PD1S2fVgXAxMt-b9-73" edge="1">
          <mxGeometry relative="1" as="geometry" />
        </mxCell>
        <mxCell id="OCs3PD1S2fVgXAxMt-b9-69" value="query targetName (type AAAA)" style="rounded=1;whiteSpace=wrap;html=1;fillColor=#fff2cc;strokeColor=#d6b656;" parent="OCs3PD1S2fVgXAxMt-b9-54" vertex="1">
          <mxGeometry x="204.5" y="95" width="120" height="60" as="geometry" />
        </mxCell>
        <mxCell id="OCs3PD1S2fVgXAxMt-b9-72" style="edgeStyle=orthogonalEdgeStyle;rounded=0;orthogonalLoop=1;jettySize=auto;html=1;exitX=1;exitY=0.5;exitDx=0;exitDy=0;entryX=0;entryY=0.5;entryDx=0;entryDy=0;" parent="OCs3PD1S2fVgXAxMt-b9-54" source="OCs3PD1S2fVgXAxMt-b9-73" target="OCs3PD1S2fVgXAxMt-b9-82" edge="1">
          <mxGeometry relative="1" as="geometry" />
        </mxCell>
        <mxCell id="OCs3PD1S2fVgXAxMt-b9-73" value="ipv6hint in &lt;br&gt;DNS Response?" style="rhombus;whiteSpace=wrap;html=1;" parent="OCs3PD1S2fVgXAxMt-b9-54" vertex="1">
          <mxGeometry x="354.5" y="80" width="150" height="90" as="geometry" />
        </mxCell>
        <mxCell id="OCs3PD1S2fVgXAxMt-b9-74" style="edgeStyle=orthogonalEdgeStyle;rounded=0;orthogonalLoop=1;jettySize=auto;html=1;exitX=1;exitY=0.5;exitDx=0;exitDy=0;entryX=0.5;entryY=1;entryDx=0;entryDy=0;" parent="OCs3PD1S2fVgXAxMt-b9-54" source="OCs3PD1S2fVgXAxMt-b9-75" target="OCs3PD1S2fVgXAxMt-b9-67" edge="1">
          <mxGeometry relative="1" as="geometry">
            <Array as="points">
              <mxPoint x="714.5000000000002" y="275" />
              <mxPoint x="714.5000000000002" y="190" />
              <mxPoint x="109.5" y="190" />
            </Array>
          </mxGeometry>
        </mxCell>
        <mxCell id="OCs3PD1S2fVgXAxMt-b9-75" value="produce protocol scan to DoE topic with new endpoint" style="rounded=1;whiteSpace=wrap;html=1;fillColor=#e1d5e7;strokeColor=#9673a6;" parent="OCs3PD1S2fVgXAxMt-b9-54" vertex="1">
          <mxGeometry x="574.5" y="250" width="120" height="50" as="geometry" />
        </mxCell>
        <mxCell id="OCs3PD1S2fVgXAxMt-b9-76" style="edgeStyle=orthogonalEdgeStyle;rounded=0;orthogonalLoop=1;jettySize=auto;html=1;exitX=0.5;exitY=0;exitDx=0;exitDy=0;entryX=0.5;entryY=1;entryDx=0;entryDy=0;" parent="OCs3PD1S2fVgXAxMt-b9-54" source="OCs3PD1S2fVgXAxMt-b9-80" target="OCs3PD1S2fVgXAxMt-b9-67" edge="1">
          <mxGeometry relative="1" as="geometry">
            <Array as="points">
              <mxPoint x="429.5" y="190" />
              <mxPoint x="109.5" y="190" />
            </Array>
          </mxGeometry>
        </mxCell>
        <mxCell id="OCs3PD1S2fVgXAxMt-b9-77" value="yes" style="edgeLabel;html=1;align=center;verticalAlign=middle;resizable=0;points=[];" parent="OCs3PD1S2fVgXAxMt-b9-76" vertex="1" connectable="0">
          <mxGeometry x="-0.0785" y="1" relative="1" as="geometry">
            <mxPoint x="-30" y="-11" as="offset" />
          </mxGeometry>
        </mxCell>
        <mxCell id="OCs3PD1S2fVgXAxMt-b9-78" style="edgeStyle=orthogonalEdgeStyle;rounded=0;orthogonalLoop=1;jettySize=auto;html=1;exitX=1;exitY=0.5;exitDx=0;exitDy=0;entryX=0;entryY=0.5;entryDx=0;entryDy=0;" parent="OCs3PD1S2fVgXAxMt-b9-54" source="OCs3PD1S2fVgXAxMt-b9-80" target="OCs3PD1S2fVgXAxMt-b9-75" edge="1">
          <mxGeometry relative="1" as="geometry" />
        </mxCell>
        <mxCell id="OCs3PD1S2fVgXAxMt-b9-79" value="no" style="edgeLabel;html=1;align=center;verticalAlign=middle;resizable=0;points=[];" parent="OCs3PD1S2fVgXAxMt-b9-78" vertex="1" connectable="0">
          <mxGeometry x="-0.3788" relative="1" as="geometry">
            <mxPoint x="8" y="-9" as="offset" />
          </mxGeometry>
        </mxCell>
        <mxCell id="OCs3PD1S2fVgXAxMt-b9-80" value="ipv4hint &lt;br&gt;in DNS Response?" style="rhombus;whiteSpace=wrap;html=1;" parent="OCs3PD1S2fVgXAxMt-b9-54" vertex="1">
          <mxGeometry x="354.5" y="230" width="150" height="90" as="geometry" />
        </mxCell>
        <mxCell id="OCs3PD1S2fVgXAxMt-b9-81" style="edgeStyle=orthogonalEdgeStyle;rounded=0;orthogonalLoop=1;jettySize=auto;html=1;exitX=1;exitY=0.5;exitDx=0;exitDy=0;entryX=0;entryY=0.5;entryDx=0;entryDy=0;" parent="OCs3PD1S2fVgXAxMt-b9-54" source="OCs3PD1S2fVgXAxMt-b9-82" target="OCs3PD1S2fVgXAxMt-b9-84" edge="1">
          <mxGeometry relative="1" as="geometry" />
        </mxCell>
        <mxCell id="OCs3PD1S2fVgXAxMt-b9-82" value="produce protocol scan to DoE topic with new endpoint" style="rounded=1;whiteSpace=wrap;html=1;fillColor=#e1d5e7;strokeColor=#9673a6;" parent="OCs3PD1S2fVgXAxMt-b9-54" vertex="1">
          <mxGeometry x="574.5" y="100" width="120" height="50" as="geometry" />
        </mxCell>
        <mxCell id="OCs3PD1S2fVgXAxMt-b9-83" value="" style="ellipse;whiteSpace=wrap;html=1;aspect=fixed;fillColor=#ffffff;" parent="OCs3PD1S2fVgXAxMt-b9-54" vertex="1">
          <mxGeometry x="804.5000000000002" y="190" width="30" height="30" as="geometry" />
        </mxCell>
        <mxCell id="OCs3PD1S2fVgXAxMt-b9-84" value="" style="ellipse;whiteSpace=wrap;html=1;aspect=fixed;fillColor=#000000;" parent="OCs3PD1S2fVgXAxMt-b9-54" vertex="1">
          <mxGeometry x="809.5000000000002" y="195" width="20" height="20" as="geometry" />
        </mxCell>
        <mxCell id="hqWXFLCg-u4_ckyRxF8b-12" style="edgeStyle=orthogonalEdgeStyle;rounded=0;orthogonalLoop=1;jettySize=auto;html=1;exitX=0.5;exitY=0;exitDx=0;exitDy=0;entryX=0.5;entryY=1;entryDx=0;entryDy=0;" parent="OCs3PD1S2fVgXAxMt-b9-54" source="OCs3PD1S2fVgXAxMt-b9-57" target="OCs3PD1S2fVgXAxMt-b9-61" edge="1">
          <mxGeometry relative="1" as="geometry" />
        </mxCell>
        <mxCell id="OCs3PD1S2fVgXAxMt-b9-85" style="edgeStyle=orthogonalEdgeStyle;rounded=0;orthogonalLoop=1;jettySize=auto;html=1;exitX=0.5;exitY=0;exitDx=0;exitDy=0;" parent="OCs3PD1S2fVgXAxMt-b9-1" source="OCs3PD1S2fVgXAxMt-b9-86" target="OCs3PD1S2fVgXAxMt-b9-94" edge="1">
          <mxGeometry relative="1" as="geometry" />
        </mxCell>
        <mxCell id="OCs3PD1S2fVgXAxMt-b9-86" value="" style="ellipse;whiteSpace=wrap;html=1;aspect=fixed;fillColor=#000000;" parent="OCs3PD1S2fVgXAxMt-b9-1" vertex="1">
          <mxGeometry x="644.9986486486487" y="573" width="30" height="30" as="geometry" />
        </mxCell>
        <mxCell id="OCs3PD1S2fVgXAxMt-b9-87" style="edgeStyle=orthogonalEdgeStyle;rounded=0;orthogonalLoop=1;jettySize=auto;html=1;exitX=0.5;exitY=0;exitDx=0;exitDy=0;entryX=0.5;entryY=1;entryDx=0;entryDy=0;" parent="OCs3PD1S2fVgXAxMt-b9-1" source="OCs3PD1S2fVgXAxMt-b9-90" target="OCs3PD1S2fVgXAxMt-b9-97" edge="1">
          <mxGeometry relative="1" as="geometry" />
        </mxCell>
        <mxCell id="OCs3PD1S2fVgXAxMt-b9-88" value="no" style="edgeLabel;html=1;align=center;verticalAlign=middle;resizable=0;points=[];" parent="OCs3PD1S2fVgXAxMt-b9-87" vertex="1" connectable="0">
          <mxGeometry x="0.2111" y="3" relative="1" as="geometry">
            <mxPoint as="offset" />
          </mxGeometry>
        </mxCell>
        <mxCell id="OCs3PD1S2fVgXAxMt-b9-89" value="yes" style="edgeStyle=orthogonalEdgeStyle;rounded=0;orthogonalLoop=1;jettySize=auto;html=1;exitX=1;exitY=0.5;exitDx=0;exitDy=0;entryX=0;entryY=0.5;entryDx=0;entryDy=0;" parent="OCs3PD1S2fVgXAxMt-b9-1" source="OCs3PD1S2fVgXAxMt-b9-90" target="OCs3PD1S2fVgXAxMt-b9-99" edge="1">
          <mxGeometry relative="1" as="geometry" />
        </mxCell>
        <mxCell id="OCs3PD1S2fVgXAxMt-b9-90" value="DoT?" style="rhombus;whiteSpace=wrap;html=1;" parent="OCs3PD1S2fVgXAxMt-b9-1" vertex="1">
          <mxGeometry x="600" y="322" width="120" height="90" as="geometry" />
        </mxCell>
        <mxCell id="OCs3PD1S2fVgXAxMt-b9-91" value="no" style="edgeStyle=orthogonalEdgeStyle;rounded=0;orthogonalLoop=1;jettySize=auto;html=1;exitX=0.5;exitY=0;exitDx=0;exitDy=0;entryX=0.5;entryY=1;entryDx=0;entryDy=0;" parent="OCs3PD1S2fVgXAxMt-b9-1" source="OCs3PD1S2fVgXAxMt-b9-94" target="OCs3PD1S2fVgXAxMt-b9-90" edge="1">
          <mxGeometry relative="1" as="geometry" />
        </mxCell>
        <mxCell id="bzqzzSRLQrOWmeCuMzVM-57" style="edgeStyle=orthogonalEdgeStyle;rounded=0;orthogonalLoop=1;jettySize=auto;html=1;exitX=1;exitY=0.5;exitDx=0;exitDy=0;" edge="1" parent="OCs3PD1S2fVgXAxMt-b9-1" source="OCs3PD1S2fVgXAxMt-b9-94" target="OCs3PD1S2fVgXAxMt-b9-98">
          <mxGeometry relative="1" as="geometry" />
        </mxCell>
        <mxCell id="bzqzzSRLQrOWmeCuMzVM-58" value="yes" style="edgeLabel;html=1;align=center;verticalAlign=middle;resizable=0;points=[];" vertex="1" connectable="0" parent="bzqzzSRLQrOWmeCuMzVM-57">
          <mxGeometry x="0.1591" relative="1" as="geometry">
            <mxPoint as="offset" />
          </mxGeometry>
        </mxCell>
        <mxCell id="OCs3PD1S2fVgXAxMt-b9-94" value="DoH?" style="rhombus;whiteSpace=wrap;html=1;" parent="OCs3PD1S2fVgXAxMt-b9-1" vertex="1">
          <mxGeometry x="600" y="456" width="120" height="90" as="geometry" />
        </mxCell>
        <mxCell id="OCs3PD1S2fVgXAxMt-b9-99" value="produce protocol scan to DoT topic" style="rounded=1;whiteSpace=wrap;html=1;fillColor=#e1d5e7;strokeColor=#9673a6;" parent="OCs3PD1S2fVgXAxMt-b9-1" vertex="1">
          <mxGeometry x="904.8999999999999" y="342" width="120" height="50" as="geometry" />
        </mxCell>
        <mxCell id="OCs3PD1S2fVgXAxMt-b9-108" style="edgeStyle=orthogonalEdgeStyle;rounded=0;orthogonalLoop=1;jettySize=auto;html=1;exitX=1;exitY=0.5;exitDx=0;exitDy=0;entryX=0;entryY=0.5;entryDx=0;entryDy=0;entryPerimeter=0;" parent="OCs3PD1S2fVgXAxMt-b9-1" source="OCs3PD1S2fVgXAxMt-b9-100" target="OCs3PD1S2fVgXAxMt-b9-54" edge="1">
          <mxGeometry relative="1" as="geometry" />
        </mxCell>
        <mxCell id="OCs3PD1S2fVgXAxMt-b9-109" style="edgeStyle=orthogonalEdgeStyle;rounded=0;orthogonalLoop=1;jettySize=auto;html=1;exitX=1;exitY=0.5;exitDx=0;exitDy=0;entryX=0;entryY=0.5;entryDx=0;entryDy=0;entryPerimeter=0;" parent="OCs3PD1S2fVgXAxMt-b9-1" source="OCs3PD1S2fVgXAxMt-b9-99" target="OCs3PD1S2fVgXAxMt-b9-54" edge="1">
          <mxGeometry relative="1" as="geometry" />
        </mxCell>
        <mxCell id="OCs3PD1S2fVgXAxMt-b9-112" style="edgeStyle=orthogonalEdgeStyle;rounded=0;orthogonalLoop=1;jettySize=auto;html=1;exitX=0.5;exitY=0;exitDx=0;exitDy=0;entryX=0;entryY=0.5;entryDx=0;entryDy=0;entryPerimeter=0;" parent="OCs3PD1S2fVgXAxMt-b9-1" source="OCs3PD1S2fVgXAxMt-b9-46" target="OCs3PD1S2fVgXAxMt-b9-48" edge="1">
          <mxGeometry relative="1" as="geometry" />
        </mxCell>
        <mxCell id="bzqzzSRLQrOWmeCuMzVM-63" style="edgeStyle=orthogonalEdgeStyle;rounded=0;orthogonalLoop=1;jettySize=auto;html=1;exitX=1;exitY=0.5;exitDx=0;exitDy=0;entryX=0;entryY=0.5;entryDx=0;entryDy=0;entryPerimeter=0;" edge="1" parent="OCs3PD1S2fVgXAxMt-b9-1" source="OCs3PD1S2fVgXAxMt-b9-105" target="OCs3PD1S2fVgXAxMt-b9-54">
          <mxGeometry relative="1" as="geometry" />
        </mxCell>
        <mxCell id="bzqzzSRLQrOWmeCuMzVM-64" style="edgeStyle=orthogonalEdgeStyle;rounded=0;orthogonalLoop=1;jettySize=auto;html=1;exitX=1;exitY=0.5;exitDx=0;exitDy=0;entryX=0;entryY=0.5;entryDx=0;entryDy=0;entryPerimeter=0;" edge="1" parent="OCs3PD1S2fVgXAxMt-b9-1" source="OCs3PD1S2fVgXAxMt-b9-104" target="OCs3PD1S2fVgXAxMt-b9-54">
          <mxGeometry relative="1" as="geometry" />
        </mxCell>
        <mxCell id="bzqzzSRLQrOWmeCuMzVM-65" value="no" style="edgeLabel;html=1;align=center;verticalAlign=middle;resizable=0;points=[];" vertex="1" connectable="0" parent="bzqzzSRLQrOWmeCuMzVM-64">
          <mxGeometry x="-0.3005" y="1" relative="1" as="geometry">
            <mxPoint as="offset" />
          </mxGeometry>
        </mxCell>
        <mxCell id="OCs3PD1S2fVgXAxMt-b9-113" value="Scanner (DoH, DoT, DoQ)" style="swimlane;whiteSpace=wrap;html=1;" parent="1" vertex="1">
          <mxGeometry x="2290" y="10" width="1000" height="580" as="geometry" />
        </mxCell>
        <mxCell id="OCs3PD1S2fVgXAxMt-b9-114" style="edgeStyle=orthogonalEdgeStyle;rounded=0;orthogonalLoop=1;jettySize=auto;html=1;exitX=1;exitY=0.5;exitDx=0;exitDy=0;entryX=0;entryY=0.5;entryDx=0;entryDy=0;" parent="OCs3PD1S2fVgXAxMt-b9-113" source="OCs3PD1S2fVgXAxMt-b9-115" target="OCs3PD1S2fVgXAxMt-b9-147" edge="1">
          <mxGeometry relative="1" as="geometry" />
        </mxCell>
        <mxCell id="OCs3PD1S2fVgXAxMt-b9-115" value="receive &lt;br&gt;DoE &lt;br&gt;scan from topic&lt;div&gt;&lt;br&gt;&lt;/div&gt;&lt;div&gt;(host, protocol, targetName, &lt;br&gt;port, URI, ...)&lt;/div&gt;" style="shape=parallelogram;perimeter=parallelogramPerimeter;whiteSpace=wrap;html=1;fixedSize=1;fillColor=#dae8fc;strokeColor=#6c8ebf;" parent="OCs3PD1S2fVgXAxMt-b9-113" vertex="1">
          <mxGeometry x="110" y="50" width="240" height="90" as="geometry" />
        </mxCell>
        <mxCell id="OCs3PD1S2fVgXAxMt-b9-116" value="" style="edgeStyle=orthogonalEdgeStyle;rounded=0;orthogonalLoop=1;jettySize=auto;html=1;" parent="OCs3PD1S2fVgXAxMt-b9-113" source="OCs3PD1S2fVgXAxMt-b9-117" target="OCs3PD1S2fVgXAxMt-b9-115" edge="1">
          <mxGeometry relative="1" as="geometry" />
        </mxCell>
        <mxCell id="OCs3PD1S2fVgXAxMt-b9-117" value="" style="ellipse;whiteSpace=wrap;html=1;aspect=fixed;fillColor=#000000;" parent="OCs3PD1S2fVgXAxMt-b9-113" vertex="1">
          <mxGeometry x="32.46" y="80" width="30" height="30" as="geometry" />
        </mxCell>
        <mxCell id="OCs3PD1S2fVgXAxMt-b9-118" style="edgeStyle=orthogonalEdgeStyle;rounded=0;orthogonalLoop=1;jettySize=auto;html=1;exitX=0.5;exitY=1;exitDx=0;exitDy=0;" parent="OCs3PD1S2fVgXAxMt-b9-113" source="OCs3PD1S2fVgXAxMt-b9-119" target="OCs3PD1S2fVgXAxMt-b9-123" edge="1">
          <mxGeometry relative="1" as="geometry" />
        </mxCell>
        <mxCell id="OCs3PD1S2fVgXAxMt-b9-119" value="try to query A &amp;lt;random-str&amp;gt;.raiun.de via DoE&lt;br&gt;&lt;div&gt;on &lt;b&gt;IPv6&lt;/b&gt; (A Type)&lt;/div&gt;&lt;div&gt;put SNI targetName&lt;br&gt;&lt;/div&gt;" style="rounded=1;whiteSpace=wrap;html=1;fillColor=#fff2cc;strokeColor=#d6b656;" parent="OCs3PD1S2fVgXAxMt-b9-113" vertex="1">
          <mxGeometry x="310" y="210" width="200" height="75" as="geometry" />
        </mxCell>
        <mxCell id="WpcnTG5JJu7fRt-q4RXu-6" style="edgeStyle=orthogonalEdgeStyle;rounded=0;orthogonalLoop=1;jettySize=auto;html=1;exitX=0;exitY=0.5;exitDx=0;exitDy=0;entryX=1;entryY=0.5;entryDx=0;entryDy=0;" parent="OCs3PD1S2fVgXAxMt-b9-113" source="OCs3PD1S2fVgXAxMt-b9-123" target="WpcnTG5JJu7fRt-q4RXu-2" edge="1">
          <mxGeometry relative="1" as="geometry">
            <mxPoint x="605" y="370.5" as="targetPoint" />
          </mxGeometry>
        </mxCell>
        <mxCell id="WpcnTG5JJu7fRt-q4RXu-7" value="no" style="edgeLabel;html=1;align=center;verticalAlign=middle;resizable=0;points=[];" parent="WpcnTG5JJu7fRt-q4RXu-6" vertex="1" connectable="0">
          <mxGeometry x="-0.2952" y="-2" relative="1" as="geometry">
            <mxPoint as="offset" />
          </mxGeometry>
        </mxCell>
        <mxCell id="WpcnTG5JJu7fRt-q4RXu-10" style="edgeStyle=orthogonalEdgeStyle;rounded=0;orthogonalLoop=1;jettySize=auto;html=1;exitX=0.5;exitY=1;exitDx=0;exitDy=0;entryX=1;entryY=0.5;entryDx=0;entryDy=0;" parent="OCs3PD1S2fVgXAxMt-b9-113" source="OCs3PD1S2fVgXAxMt-b9-123" target="OCs3PD1S2fVgXAxMt-b9-143" edge="1">
          <mxGeometry relative="1" as="geometry" />
        </mxCell>
        <mxCell id="OCs3PD1S2fVgXAxMt-b9-123" value="&lt;div&gt;Timeout? &lt;br&gt;(ms 5000&lt;span style=&quot;background-color: initial;&quot;&gt;)&lt;/span&gt;&lt;/div&gt;" style="rhombus;whiteSpace=wrap;html=1;" parent="OCs3PD1S2fVgXAxMt-b9-113" vertex="1">
          <mxGeometry x="680" y="325.5" width="120" height="90" as="geometry" />
        </mxCell>
        <mxCell id="OCs3PD1S2fVgXAxMt-b9-124" style="edgeStyle=orthogonalEdgeStyle;rounded=0;orthogonalLoop=1;jettySize=auto;html=1;exitX=0.5;exitY=1;exitDx=0;exitDy=0;entryX=0.5;entryY=0;entryDx=0;entryDy=0;" parent="OCs3PD1S2fVgXAxMt-b9-113" source="OCs3PD1S2fVgXAxMt-b9-128" target="OCs3PD1S2fVgXAxMt-b9-119" edge="1">
          <mxGeometry relative="1" as="geometry" />
        </mxCell>
        <mxCell id="OCs3PD1S2fVgXAxMt-b9-125" value="yes" style="edgeLabel;html=1;align=center;verticalAlign=middle;resizable=0;points=[];" parent="OCs3PD1S2fVgXAxMt-b9-124" vertex="1" connectable="0">
          <mxGeometry x="-0.4582" y="1" relative="1" as="geometry">
            <mxPoint as="offset" />
          </mxGeometry>
        </mxCell>
        <mxCell id="OCs3PD1S2fVgXAxMt-b9-126" style="edgeStyle=orthogonalEdgeStyle;rounded=0;orthogonalLoop=1;jettySize=auto;html=1;exitX=1;exitY=0.5;exitDx=0;exitDy=0;entryX=0.5;entryY=0;entryDx=0;entryDy=0;" parent="OCs3PD1S2fVgXAxMt-b9-113" source="OCs3PD1S2fVgXAxMt-b9-128" target="OCs3PD1S2fVgXAxMt-b9-130" edge="1">
          <mxGeometry relative="1" as="geometry" />
        </mxCell>
        <mxCell id="OCs3PD1S2fVgXAxMt-b9-127" value="no" style="edgeLabel;html=1;align=center;verticalAlign=middle;resizable=0;points=[];" parent="OCs3PD1S2fVgXAxMt-b9-126" vertex="1" connectable="0">
          <mxGeometry x="-0.4888" y="3" relative="1" as="geometry">
            <mxPoint as="offset" />
          </mxGeometry>
        </mxCell>
        <mxCell id="OCs3PD1S2fVgXAxMt-b9-128" value="IPv6?" style="rhombus;whiteSpace=wrap;html=1;" parent="OCs3PD1S2fVgXAxMt-b9-113" vertex="1">
          <mxGeometry x="560" y="50" width="120" height="90" as="geometry" />
        </mxCell>
        <mxCell id="OCs3PD1S2fVgXAxMt-b9-129" style="edgeStyle=orthogonalEdgeStyle;rounded=0;orthogonalLoop=1;jettySize=auto;html=1;exitX=0.5;exitY=1;exitDx=0;exitDy=0;entryX=0.5;entryY=0;entryDx=0;entryDy=0;" parent="OCs3PD1S2fVgXAxMt-b9-113" source="OCs3PD1S2fVgXAxMt-b9-130" target="OCs3PD1S2fVgXAxMt-b9-123" edge="1">
          <mxGeometry relative="1" as="geometry">
            <mxPoint x="650" y="320" as="targetPoint" />
          </mxGeometry>
        </mxCell>
        <mxCell id="OCs3PD1S2fVgXAxMt-b9-130" value="try to query &lt;font color=&quot;#0f0401&quot;&gt;&amp;lt;random-str&amp;gt;.raiun.de&lt;/font&gt; via DoE&lt;br&gt;&lt;div&gt;on &lt;b&gt;IPv4&lt;/b&gt; (A Type)&lt;/div&gt;&lt;div&gt;put SNI targetName&lt;br&gt;&lt;/div&gt;" style="rounded=1;whiteSpace=wrap;html=1;fillColor=#fff2cc;strokeColor=#d6b656;" parent="OCs3PD1S2fVgXAxMt-b9-113" vertex="1">
          <mxGeometry x="550" y="210" width="200" height="75" as="geometry" />
        </mxCell>
        <mxCell id="OCs3PD1S2fVgXAxMt-b9-137" style="edgeStyle=orthogonalEdgeStyle;rounded=0;orthogonalLoop=1;jettySize=auto;html=1;exitX=0;exitY=0.5;exitDx=0;exitDy=0;entryX=1;entryY=0.5;entryDx=0;entryDy=0;" parent="OCs3PD1S2fVgXAxMt-b9-113" source="OCs3PD1S2fVgXAxMt-b9-143" target="OCs3PD1S2fVgXAxMt-b9-138" edge="1">
          <mxGeometry relative="1" as="geometry">
            <mxPoint x="102.55000000000014" y="525" as="sourcePoint" />
          </mxGeometry>
        </mxCell>
        <mxCell id="OCs3PD1S2fVgXAxMt-b9-138" value="" style="ellipse;whiteSpace=wrap;html=1;aspect=fixed;fillColor=#ffffff;" parent="OCs3PD1S2fVgXAxMt-b9-113" vertex="1">
          <mxGeometry x="17.550000000000004" y="509.99999999999994" width="30" height="30" as="geometry" />
        </mxCell>
        <mxCell id="OCs3PD1S2fVgXAxMt-b9-139" value="" style="ellipse;whiteSpace=wrap;html=1;aspect=fixed;fillColor=#000000;" parent="OCs3PD1S2fVgXAxMt-b9-113" vertex="1">
          <mxGeometry x="22.550000000000004" y="515" width="20" height="20" as="geometry" />
        </mxCell>
        <mxCell id="OCs3PD1S2fVgXAxMt-b9-140" style="edgeStyle=orthogonalEdgeStyle;rounded=0;orthogonalLoop=1;jettySize=auto;html=1;exitX=0.5;exitY=1;exitDx=0;exitDy=0;" parent="OCs3PD1S2fVgXAxMt-b9-113" edge="1">
          <mxGeometry relative="1" as="geometry">
            <mxPoint x="202.55" y="549.9999999999999" as="sourcePoint" />
            <mxPoint x="202.55" y="549.9999999999999" as="targetPoint" />
          </mxGeometry>
        </mxCell>
        <mxCell id="OCs3PD1S2fVgXAxMt-b9-143" value="store result" style="shape=datastore;whiteSpace=wrap;html=1;" parent="OCs3PD1S2fVgXAxMt-b9-113" vertex="1">
          <mxGeometry x="132.46" y="495" width="60" height="60" as="geometry" />
        </mxCell>
        <mxCell id="OCs3PD1S2fVgXAxMt-b9-144" value="yes" style="edgeStyle=orthogonalEdgeStyle;rounded=0;orthogonalLoop=1;jettySize=auto;html=1;exitX=1;exitY=0.5;exitDx=0;exitDy=0;entryX=0;entryY=0.5;entryDx=0;entryDy=0;" parent="OCs3PD1S2fVgXAxMt-b9-113" source="OCs3PD1S2fVgXAxMt-b9-147" target="OCs3PD1S2fVgXAxMt-b9-128" edge="1">
          <mxGeometry relative="1" as="geometry" />
        </mxCell>
        <mxCell id="OCs3PD1S2fVgXAxMt-b9-145" style="edgeStyle=orthogonalEdgeStyle;rounded=0;orthogonalLoop=1;jettySize=auto;html=1;exitX=0.5;exitY=1;exitDx=0;exitDy=0;entryX=0.5;entryY=0;entryDx=0;entryDy=0;" parent="OCs3PD1S2fVgXAxMt-b9-113" source="OCs3PD1S2fVgXAxMt-b9-147" target="OCs3PD1S2fVgXAxMt-b9-149" edge="1">
          <mxGeometry relative="1" as="geometry">
            <Array as="points">
              <mxPoint x="460" y="160" />
              <mxPoint x="163" y="160" />
            </Array>
          </mxGeometry>
        </mxCell>
        <mxCell id="OCs3PD1S2fVgXAxMt-b9-146" value="no" style="edgeLabel;html=1;align=center;verticalAlign=middle;resizable=0;points=[];" parent="OCs3PD1S2fVgXAxMt-b9-145" vertex="1" connectable="0">
          <mxGeometry x="-0.238" relative="1" as="geometry">
            <mxPoint x="10" y="-10" as="offset" />
          </mxGeometry>
        </mxCell>
        <mxCell id="OCs3PD1S2fVgXAxMt-b9-147" value="Is host an IP&lt;div&gt;address?&lt;/div&gt;" style="rhombus;whiteSpace=wrap;html=1;" parent="OCs3PD1S2fVgXAxMt-b9-113" vertex="1">
          <mxGeometry x="400.00000000000006" y="50" width="120" height="90" as="geometry" />
        </mxCell>
        <mxCell id="OCs3PD1S2fVgXAxMt-b9-148" style="edgeStyle=orthogonalEdgeStyle;rounded=0;orthogonalLoop=1;jettySize=auto;html=1;exitX=0.5;exitY=1;exitDx=0;exitDy=0;entryX=0.5;entryY=0;entryDx=0;entryDy=0;" parent="OCs3PD1S2fVgXAxMt-b9-113" source="OCs3PD1S2fVgXAxMt-b9-149" target="OCs3PD1S2fVgXAxMt-b9-123" edge="1">
          <mxGeometry relative="1" as="geometry" />
        </mxCell>
        <mxCell id="OCs3PD1S2fVgXAxMt-b9-149" value="try to query &amp;lt;random-str&amp;gt;.raiun.de via DoE&lt;br&gt;&lt;div&gt;on &lt;b&gt;targetName&lt;/b&gt; (A Type)&lt;/div&gt;" style="rounded=1;whiteSpace=wrap;html=1;fillColor=#fff2cc;strokeColor=#d6b656;" parent="OCs3PD1S2fVgXAxMt-b9-113" vertex="1">
          <mxGeometry x="62.460000000000036" y="210" width="200" height="75" as="geometry" />
        </mxCell>
        <mxCell id="WpcnTG5JJu7fRt-q4RXu-13" style="edgeStyle=orthogonalEdgeStyle;rounded=0;orthogonalLoop=1;jettySize=auto;html=1;exitX=0.5;exitY=1;exitDx=0;exitDy=0;entryX=0.5;entryY=0;entryDx=0;entryDy=0;" parent="OCs3PD1S2fVgXAxMt-b9-113" source="WpcnTG5JJu7fRt-q4RXu-1" target="OCs3PD1S2fVgXAxMt-b9-143" edge="1">
          <mxGeometry relative="1" as="geometry" />
        </mxCell>
        <mxCell id="WpcnTG5JJu7fRt-q4RXu-1" value="produce DoE scan with&lt;br&gt;&lt;b&gt;SkipCertificateVerify&lt;/b&gt; = true&lt;div&gt;(store cert error/retry attempt)&lt;/div&gt;" style="rounded=1;whiteSpace=wrap;html=1;fillColor=#e1d5e7;strokeColor=#9673a6;" parent="OCs3PD1S2fVgXAxMt-b9-113" vertex="1">
          <mxGeometry x="63.46" y="327.48" width="197.54" height="86.05" as="geometry" />
        </mxCell>
        <mxCell id="WpcnTG5JJu7fRt-q4RXu-4" style="edgeStyle=orthogonalEdgeStyle;rounded=0;orthogonalLoop=1;jettySize=auto;html=1;exitX=0;exitY=0.5;exitDx=0;exitDy=0;entryX=1;entryY=0.5;entryDx=0;entryDy=0;" parent="OCs3PD1S2fVgXAxMt-b9-113" source="WpcnTG5JJu7fRt-q4RXu-2" target="WpcnTG5JJu7fRt-q4RXu-1" edge="1">
          <mxGeometry relative="1" as="geometry" />
        </mxCell>
        <mxCell id="WpcnTG5JJu7fRt-q4RXu-15" value="no" style="edgeLabel;html=1;align=center;verticalAlign=middle;resizable=0;points=[];" parent="WpcnTG5JJu7fRt-q4RXu-4" vertex="1" connectable="0">
          <mxGeometry x="-0.3255" y="-1" relative="1" as="geometry">
            <mxPoint as="offset" />
          </mxGeometry>
        </mxCell>
        <mxCell id="WpcnTG5JJu7fRt-q4RXu-11" style="edgeStyle=orthogonalEdgeStyle;rounded=0;orthogonalLoop=1;jettySize=auto;html=1;exitX=0.5;exitY=1;exitDx=0;exitDy=0;entryX=1;entryY=0.5;entryDx=0;entryDy=0;" parent="OCs3PD1S2fVgXAxMt-b9-113" source="WpcnTG5JJu7fRt-q4RXu-2" target="WpcnTG5JJu7fRt-q4RXu-9" edge="1">
          <mxGeometry relative="1" as="geometry" />
        </mxCell>
        <mxCell id="WpcnTG5JJu7fRt-q4RXu-12" value="yes" style="edgeLabel;html=1;align=center;verticalAlign=middle;resizable=0;points=[];" parent="WpcnTG5JJu7fRt-q4RXu-11" vertex="1" connectable="0">
          <mxGeometry x="-0.0042" y="2" relative="1" as="geometry">
            <mxPoint as="offset" />
          </mxGeometry>
        </mxCell>
        <mxCell id="WpcnTG5JJu7fRt-q4RXu-2" value="Certificate vailid?" style="rhombus;whiteSpace=wrap;html=1;" parent="OCs3PD1S2fVgXAxMt-b9-113" vertex="1">
          <mxGeometry x="480" y="323" width="120" height="95" as="geometry" />
        </mxCell>
        <mxCell id="WpcnTG5JJu7fRt-q4RXu-14" style="edgeStyle=orthogonalEdgeStyle;rounded=0;orthogonalLoop=1;jettySize=auto;html=1;exitX=0;exitY=0.5;exitDx=0;exitDy=0;entryX=0.5;entryY=0;entryDx=0;entryDy=0;" parent="OCs3PD1S2fVgXAxMt-b9-113" source="WpcnTG5JJu7fRt-q4RXu-9" target="OCs3PD1S2fVgXAxMt-b9-143" edge="1">
          <mxGeometry relative="1" as="geometry" />
        </mxCell>
        <mxCell id="WpcnTG5JJu7fRt-q4RXu-9" value="validate response (RR):&lt;br&gt;Did we get the expected response?" style="rounded=1;whiteSpace=wrap;html=1;fillColor=#f5f5f5;strokeColor=#666666;fontColor=#333333;" parent="OCs3PD1S2fVgXAxMt-b9-113" vertex="1">
          <mxGeometry x="340" y="405.00000000000006" width="110" height="90" as="geometry" />
        </mxCell>
        <mxCell id="OCs3PD1S2fVgXAxMt-b9-151" value="Scanner (fingerprint)" style="swimlane;whiteSpace=wrap;html=1;" parent="1" vertex="1">
          <mxGeometry x="1440" y="1480" width="760" height="220" as="geometry" />
        </mxCell>
        <mxCell id="OCs3PD1S2fVgXAxMt-b9-152" style="edgeStyle=orthogonalEdgeStyle;rounded=0;orthogonalLoop=1;jettySize=auto;html=1;exitX=1;exitY=0.5;exitDx=0;exitDy=0;entryX=0;entryY=0.5;entryDx=0;entryDy=0;" parent="OCs3PD1S2fVgXAxMt-b9-151" source="OCs3PD1S2fVgXAxMt-b9-153" target="OCs3PD1S2fVgXAxMt-b9-157" edge="1">
          <mxGeometry relative="1" as="geometry" />
        </mxCell>
        <mxCell id="OCs3PD1S2fVgXAxMt-b9-153" value="receive &lt;br&gt;fingerprint&lt;br&gt;scan from topic" style="shape=parallelogram;perimeter=parallelogramPerimeter;whiteSpace=wrap;html=1;fixedSize=1;fillColor=#dae8fc;strokeColor=#6c8ebf;" parent="OCs3PD1S2fVgXAxMt-b9-151" vertex="1">
          <mxGeometry x="110" y="40" width="140" height="70" as="geometry" />
        </mxCell>
        <mxCell id="OCs3PD1S2fVgXAxMt-b9-154" value="" style="edgeStyle=orthogonalEdgeStyle;rounded=0;orthogonalLoop=1;jettySize=auto;html=1;" parent="OCs3PD1S2fVgXAxMt-b9-151" source="OCs3PD1S2fVgXAxMt-b9-155" target="OCs3PD1S2fVgXAxMt-b9-153" edge="1">
          <mxGeometry relative="1" as="geometry" />
        </mxCell>
        <mxCell id="OCs3PD1S2fVgXAxMt-b9-155" value="" style="ellipse;whiteSpace=wrap;html=1;aspect=fixed;fillColor=#000000;" parent="OCs3PD1S2fVgXAxMt-b9-151" vertex="1">
          <mxGeometry x="30" y="60" width="30" height="30" as="geometry" />
        </mxCell>
        <mxCell id="OCs3PD1S2fVgXAxMt-b9-156" style="edgeStyle=orthogonalEdgeStyle;rounded=0;orthogonalLoop=1;jettySize=auto;html=1;exitX=1;exitY=0.5;exitDx=0;exitDy=0;" parent="OCs3PD1S2fVgXAxMt-b9-151" source="OCs3PD1S2fVgXAxMt-b9-157" target="OCs3PD1S2fVgXAxMt-b9-161" edge="1">
          <mxGeometry relative="1" as="geometry" />
        </mxCell>
        <mxCell id="OCs3PD1S2fVgXAxMt-b9-157" value="CHAOS to fingerprint DNS resolvers (version.bind, version.server) [RFC4892]" style="rounded=1;whiteSpace=wrap;html=1;fillColor=#fff2cc;strokeColor=#d6b656;" parent="OCs3PD1S2fVgXAxMt-b9-151" vertex="1">
          <mxGeometry x="286" y="37.5" width="200" height="75" as="geometry" />
        </mxCell>
        <mxCell id="OCs3PD1S2fVgXAxMt-b9-158" value="" style="ellipse;whiteSpace=wrap;html=1;aspect=fixed;fillColor=#ffffff;" parent="OCs3PD1S2fVgXAxMt-b9-151" vertex="1">
          <mxGeometry x="470" y="155" width="30" height="30" as="geometry" />
        </mxCell>
        <mxCell id="OCs3PD1S2fVgXAxMt-b9-159" value="" style="ellipse;whiteSpace=wrap;html=1;aspect=fixed;fillColor=#000000;" parent="OCs3PD1S2fVgXAxMt-b9-151" vertex="1">
          <mxGeometry x="475" y="160" width="20" height="20" as="geometry" />
        </mxCell>
        <mxCell id="OCs3PD1S2fVgXAxMt-b9-160" style="edgeStyle=orthogonalEdgeStyle;rounded=0;orthogonalLoop=1;jettySize=auto;html=1;exitX=0.5;exitY=1;exitDx=0;exitDy=0;entryX=0.5;entryY=0;entryDx=0;entryDy=0;" parent="OCs3PD1S2fVgXAxMt-b9-151" source="OCs3PD1S2fVgXAxMt-b9-161" target="OCs3PD1S2fVgXAxMt-b9-163" edge="1">
          <mxGeometry relative="1" as="geometry">
            <mxPoint x="255" y="155" as="targetPoint" />
          </mxGeometry>
        </mxCell>
        <mxCell id="OCs3PD1S2fVgXAxMt-b9-161" value="Take other protocols like SSH into account for fingerprinting" style="rounded=1;whiteSpace=wrap;html=1;fillColor=#fff2cc;strokeColor=#d6b656;" parent="OCs3PD1S2fVgXAxMt-b9-151" vertex="1">
          <mxGeometry x="510" y="37.5" width="200" height="75" as="geometry" />
        </mxCell>
        <mxCell id="OCs3PD1S2fVgXAxMt-b9-162" style="edgeStyle=orthogonalEdgeStyle;rounded=0;orthogonalLoop=1;jettySize=auto;html=1;exitX=0;exitY=0.5;exitDx=0;exitDy=0;entryX=1;entryY=0.5;entryDx=0;entryDy=0;" parent="OCs3PD1S2fVgXAxMt-b9-151" source="OCs3PD1S2fVgXAxMt-b9-163" target="OCs3PD1S2fVgXAxMt-b9-158" edge="1">
          <mxGeometry relative="1" as="geometry" />
        </mxCell>
        <mxCell id="OCs3PD1S2fVgXAxMt-b9-163" value="store result" style="shape=datastore;whiteSpace=wrap;html=1;" parent="OCs3PD1S2fVgXAxMt-b9-151" vertex="1">
          <mxGeometry x="580" y="140" width="60" height="60" as="geometry" />
        </mxCell>
        <mxCell id="OCs3PD1S2fVgXAxMt-b9-164" style="edgeStyle=orthogonalEdgeStyle;rounded=0;orthogonalLoop=1;jettySize=auto;html=1;exitX=0.5;exitY=1;exitDx=0;exitDy=0;exitPerimeter=0;entryX=1;entryY=0.5;entryDx=0;entryDy=0;curved=1;dashed=1;" parent="1" source="OCs3PD1S2fVgXAxMt-b9-165" target="OCs3PD1S2fVgXAxMt-b9-130" edge="1">
          <mxGeometry relative="1" as="geometry">
            <Array as="points">
              <mxPoint x="2820" y="-20" />
              <mxPoint x="3060" y="-20" />
              <mxPoint x="3060" y="258" />
            </Array>
          </mxGeometry>
        </mxCell>
        <mxCell id="OCs3PD1S2fVgXAxMt-b9-165" value="&lt;u&gt;Censorship&lt;/u&gt;&lt;br&gt;An interesting approach would be to look for deltas between a query in a sensitive domain when considering vantage points. [Jin2021]" style="shape=note;whiteSpace=wrap;html=1;backgroundOutline=1;darkOpacity=0.05;fillColor=#f5f5f5;strokeColor=#666666;fontColor=#333333;" parent="1" vertex="1">
          <mxGeometry x="2720" y="-160" width="200" height="130" as="geometry" />
        </mxCell>
        <mxCell id="OCs3PD1S2fVgXAxMt-b9-166" style="edgeStyle=orthogonalEdgeStyle;rounded=0;orthogonalLoop=1;jettySize=auto;html=1;exitX=0;exitY=0.5;exitDx=0;exitDy=0;exitPerimeter=0;entryX=0.5;entryY=0;entryDx=0;entryDy=0;dashed=1;curved=1;" parent="1" source="OCs3PD1S2fVgXAxMt-b9-167" target="OCs3PD1S2fVgXAxMt-b9-4" edge="1">
          <mxGeometry relative="1" as="geometry" />
        </mxCell>
        <mxCell id="OCs3PD1S2fVgXAxMt-b9-167" value="&lt;u style=&quot;border-color: var(--border-color);&quot;&gt;Censorship&lt;/u&gt;&lt;br style=&quot;border-color: var(--border-color);&quot;&gt;An interesting approach would be to look for deltas between DDR offered from different vantage points." style="shape=note;whiteSpace=wrap;html=1;backgroundOutline=1;darkOpacity=0.05;fillColor=#f5f5f5;strokeColor=#666666;fontColor=#333333;" parent="1" vertex="1">
          <mxGeometry x="750" y="9" width="200" height="130" as="geometry" />
        </mxCell>
        <mxCell id="OCs3PD1S2fVgXAxMt-b9-168" style="edgeStyle=orthogonalEdgeStyle;rounded=0;orthogonalLoop=1;jettySize=auto;html=1;exitX=0.5;exitY=1;exitDx=0;exitDy=0;exitPerimeter=0;entryX=0.5;entryY=0;entryDx=0;entryDy=0;dashed=1;curved=1;" parent="1" source="OCs3PD1S2fVgXAxMt-b9-169" target="OCs3PD1S2fVgXAxMt-b9-113" edge="1">
          <mxGeometry relative="1" as="geometry" />
        </mxCell>
        <mxCell id="OCs3PD1S2fVgXAxMt-b9-169" value="&lt;u&gt;https://www.planet-lab.eu/&lt;br&gt;&lt;/u&gt;https://www.vpngate.net/en/" style="shape=note;whiteSpace=wrap;html=1;backgroundOutline=1;darkOpacity=0.05;fillColor=#f5f5f5;strokeColor=#666666;fontColor=#333333;" parent="1" vertex="1">
          <mxGeometry x="2380" y="-170" width="210" height="140" as="geometry" />
        </mxCell>
        <mxCell id="OCs3PD1S2fVgXAxMt-b9-170" value="" style="image;sketch=0;aspect=fixed;html=1;points=[];align=center;fontSize=12;image=img/lib/mscae/Info.svg;" parent="1" vertex="1">
          <mxGeometry x="2724" y="-157" width="30" height="30" as="geometry" />
        </mxCell>
        <mxCell id="OCs3PD1S2fVgXAxMt-b9-171" value="" style="image;sketch=0;aspect=fixed;html=1;points=[];align=center;fontSize=12;image=img/lib/mscae/Info.svg;" parent="1" vertex="1">
          <mxGeometry x="2390" y="-150" width="30" height="30" as="geometry" />
        </mxCell>
        <mxCell id="OCs3PD1S2fVgXAxMt-b9-172" value="" style="image;sketch=0;aspect=fixed;html=1;points=[];align=center;fontSize=12;image=img/lib/mscae/Info.svg;" parent="1" vertex="1">
          <mxGeometry x="760" y="12" width="30" height="30" as="geometry" />
        </mxCell>
        <mxCell id="OCs3PD1S2fVgXAxMt-b9-173" style="edgeStyle=orthogonalEdgeStyle;rounded=0;orthogonalLoop=1;jettySize=auto;html=1;exitX=0.5;exitY=1;exitDx=0;exitDy=0;exitPerimeter=0;entryX=1;entryY=0.5;entryDx=0;entryDy=0;dashed=1;curved=1;" parent="1" source="OCs3PD1S2fVgXAxMt-b9-174" target="OCs3PD1S2fVgXAxMt-b9-113" edge="1">
          <mxGeometry relative="1" as="geometry" />
        </mxCell>
        <mxCell id="OCs3PD1S2fVgXAxMt-b9-174" value="&lt;div&gt;&lt;u&gt;Scanner Types&lt;br&gt;&lt;/u&gt;We will have scanner for each DoE type (e.g., DoT, DoH, ...)&lt;u&gt;&lt;br&gt;&lt;/u&gt;&lt;/div&gt;" style="shape=note;whiteSpace=wrap;html=1;backgroundOutline=1;darkOpacity=0.05;fillColor=#f5f5f5;strokeColor=#666666;fontColor=#333333;" parent="1" vertex="1">
          <mxGeometry x="2980" y="-160" width="200" height="130" as="geometry" />
        </mxCell>
        <mxCell id="OCs3PD1S2fVgXAxMt-b9-175" value="" style="image;sketch=0;aspect=fixed;html=1;points=[];align=center;fontSize=12;image=img/lib/mscae/Info.svg;" parent="1" vertex="1">
          <mxGeometry x="2984" y="-157" width="30" height="30" as="geometry" />
        </mxCell>
        <mxCell id="OCs3PD1S2fVgXAxMt-b9-176" value="Scan Producer IPv4/IPv6 (DDR)" style="swimlane;whiteSpace=wrap;html=1;" parent="1" vertex="1">
          <mxGeometry x="-760" y="189" width="840" height="550" as="geometry" />
        </mxCell>
        <mxCell id="bzqzzSRLQrOWmeCuMzVM-33" value="" style="shape=process;whiteSpace=wrap;html=1;backgroundOutline=1;shadow=0;" vertex="1" parent="OCs3PD1S2fVgXAxMt-b9-176">
          <mxGeometry x="30" y="180" width="780" height="340" as="geometry" />
        </mxCell>
        <mxCell id="OCs3PD1S2fVgXAxMt-b9-177" style="edgeStyle=orthogonalEdgeStyle;rounded=0;orthogonalLoop=1;jettySize=auto;html=1;exitX=1;exitY=0.5;exitDx=0;exitDy=0;entryX=1;entryY=0.5;entryDx=0;entryDy=0;" parent="OCs3PD1S2fVgXAxMt-b9-176" edge="1">
          <mxGeometry relative="1" as="geometry">
            <mxPoint x="924.9000000000001" y="555.0000000000002" as="targetPoint" />
          </mxGeometry>
        </mxCell>
        <mxCell id="OCs3PD1S2fVgXAxMt-b9-178" style="edgeStyle=orthogonalEdgeStyle;rounded=0;orthogonalLoop=1;jettySize=auto;html=1;exitX=1;exitY=0.5;exitDx=0;exitDy=0;entryX=1;entryY=0.5;entryDx=0;entryDy=0;" parent="OCs3PD1S2fVgXAxMt-b9-176" edge="1">
          <mxGeometry relative="1" as="geometry">
            <mxPoint x="924.9000000000001" y="555.0000000000002" as="targetPoint" />
          </mxGeometry>
        </mxCell>
        <mxCell id="OCs3PD1S2fVgXAxMt-b9-179" style="edgeStyle=orthogonalEdgeStyle;rounded=0;orthogonalLoop=1;jettySize=auto;html=1;exitX=1;exitY=0.5;exitDx=0;exitDy=0;entryX=1;entryY=0.5;entryDx=0;entryDy=0;" parent="OCs3PD1S2fVgXAxMt-b9-176" edge="1">
          <mxGeometry relative="1" as="geometry">
            <mxPoint x="924.9000000000001" y="555.0000000000002" as="targetPoint" />
          </mxGeometry>
        </mxCell>
        <mxCell id="OCs3PD1S2fVgXAxMt-b9-180" style="edgeStyle=orthogonalEdgeStyle;rounded=0;orthogonalLoop=1;jettySize=auto;html=1;exitX=1;exitY=0.5;exitDx=0;exitDy=0;entryX=1;entryY=0.5;entryDx=0;entryDy=0;" parent="OCs3PD1S2fVgXAxMt-b9-176" edge="1">
          <mxGeometry relative="1" as="geometry">
            <mxPoint x="924.9000000000001" y="555.0000000000002" as="targetPoint" />
          </mxGeometry>
        </mxCell>
        <mxCell id="OCs3PD1S2fVgXAxMt-b9-181" style="edgeStyle=orthogonalEdgeStyle;rounded=0;orthogonalLoop=1;jettySize=auto;html=1;exitX=1;exitY=0.5;exitDx=0;exitDy=0;entryX=0;entryY=0.5;entryDx=0;entryDy=0;" parent="OCs3PD1S2fVgXAxMt-b9-176" source="OCs3PD1S2fVgXAxMt-b9-182" target="bzqzzSRLQrOWmeCuMzVM-14" edge="1">
          <mxGeometry relative="1" as="geometry">
            <mxPoint x="140" y="80.5" as="targetPoint" />
          </mxGeometry>
        </mxCell>
        <mxCell id="OCs3PD1S2fVgXAxMt-b9-182" value="" style="ellipse;whiteSpace=wrap;html=1;aspect=fixed;fillColor=#000000;" parent="OCs3PD1S2fVgXAxMt-b9-176" vertex="1">
          <mxGeometry x="29.999999999999886" y="65.5" width="30" height="30" as="geometry" />
        </mxCell>
        <mxCell id="bzqzzSRLQrOWmeCuMzVM-42" style="edgeStyle=orthogonalEdgeStyle;rounded=0;orthogonalLoop=1;jettySize=auto;html=1;entryX=0;entryY=0.5;entryDx=0;entryDy=0;" edge="1" parent="OCs3PD1S2fVgXAxMt-b9-176" source="OCs3PD1S2fVgXAxMt-b9-186" target="bzqzzSRLQrOWmeCuMzVM-25">
          <mxGeometry relative="1" as="geometry" />
        </mxCell>
        <mxCell id="OCs3PD1S2fVgXAxMt-b9-186" value="produce DDR scan IPv4/IPv6" style="rounded=1;whiteSpace=wrap;html=1;fillColor=#e1d5e7;strokeColor=#9673a6;" parent="OCs3PD1S2fVgXAxMt-b9-176" vertex="1">
          <mxGeometry x="399.9999999999999" y="310" width="120" height="50" as="geometry" />
        </mxCell>
        <mxCell id="bzqzzSRLQrOWmeCuMzVM-17" style="edgeStyle=orthogonalEdgeStyle;rounded=0;orthogonalLoop=1;jettySize=auto;html=1;exitX=1;exitY=0.5;exitDx=0;exitDy=0;entryX=0;entryY=0.5;entryDx=0;entryDy=0;" edge="1" parent="OCs3PD1S2fVgXAxMt-b9-176" source="bzqzzSRLQrOWmeCuMzVM-14" target="bzqzzSRLQrOWmeCuMzVM-16">
          <mxGeometry relative="1" as="geometry" />
        </mxCell>
        <mxCell id="bzqzzSRLQrOWmeCuMzVM-14" value="watch output folder for new files" style="rounded=1;whiteSpace=wrap;html=1;fillColor=#f5f5f5;strokeColor=#666666;fontColor=#333333;" vertex="1" parent="OCs3PD1S2fVgXAxMt-b9-176">
          <mxGeometry x="120" y="55.5" width="120" height="50" as="geometry" />
        </mxCell>
        <mxCell id="bzqzzSRLQrOWmeCuMzVM-53" style="edgeStyle=orthogonalEdgeStyle;rounded=0;orthogonalLoop=1;jettySize=auto;html=1;exitX=0.5;exitY=1;exitDx=0;exitDy=0;entryX=0.5;entryY=1;entryDx=0;entryDy=0;" edge="1" parent="OCs3PD1S2fVgXAxMt-b9-176" source="bzqzzSRLQrOWmeCuMzVM-16" target="bzqzzSRLQrOWmeCuMzVM-14">
          <mxGeometry relative="1" as="geometry" />
        </mxCell>
        <mxCell id="bzqzzSRLQrOWmeCuMzVM-54" value="no" style="edgeLabel;html=1;align=center;verticalAlign=middle;resizable=0;points=[];" vertex="1" connectable="0" parent="bzqzzSRLQrOWmeCuMzVM-53">
          <mxGeometry x="-0.3015" y="-1" relative="1" as="geometry">
            <mxPoint as="offset" />
          </mxGeometry>
        </mxCell>
        <mxCell id="bzqzzSRLQrOWmeCuMzVM-16" value="New file in folder?" style="rhombus;whiteSpace=wrap;html=1;" vertex="1" parent="OCs3PD1S2fVgXAxMt-b9-176">
          <mxGeometry x="280" y="35.5" width="120" height="90" as="geometry" />
        </mxCell>
        <mxCell id="bzqzzSRLQrOWmeCuMzVM-37" style="edgeStyle=orthogonalEdgeStyle;rounded=0;orthogonalLoop=1;jettySize=auto;html=1;exitX=0.5;exitY=1;exitDx=0;exitDy=0;entryX=0.5;entryY=0;entryDx=0;entryDy=0;" edge="1" parent="OCs3PD1S2fVgXAxMt-b9-176" source="bzqzzSRLQrOWmeCuMzVM-18" target="bzqzzSRLQrOWmeCuMzVM-19">
          <mxGeometry relative="1" as="geometry">
            <Array as="points">
              <mxPoint x="460" y="260" />
            </Array>
          </mxGeometry>
        </mxCell>
        <mxCell id="bzqzzSRLQrOWmeCuMzVM-18" value="tail file for new lines" style="rounded=1;whiteSpace=wrap;html=1;fillColor=#f5f5f5;strokeColor=#666666;fontColor=#333333;" vertex="1" parent="OCs3PD1S2fVgXAxMt-b9-176">
          <mxGeometry x="400" y="190" width="120" height="50" as="geometry" />
        </mxCell>
        <mxCell id="bzqzzSRLQrOWmeCuMzVM-40" style="edgeStyle=orthogonalEdgeStyle;rounded=0;orthogonalLoop=1;jettySize=auto;html=1;exitX=1;exitY=0.5;exitDx=0;exitDy=0;entryX=0;entryY=0.5;entryDx=0;entryDy=0;" edge="1" parent="OCs3PD1S2fVgXAxMt-b9-176" source="bzqzzSRLQrOWmeCuMzVM-19" target="OCs3PD1S2fVgXAxMt-b9-186">
          <mxGeometry relative="1" as="geometry" />
        </mxCell>
        <mxCell id="bzqzzSRLQrOWmeCuMzVM-41" value="yes" style="edgeLabel;html=1;align=center;verticalAlign=middle;resizable=0;points=[];" vertex="1" connectable="0" parent="bzqzzSRLQrOWmeCuMzVM-40">
          <mxGeometry x="0.1619" y="2" relative="1" as="geometry">
            <mxPoint x="-7" y="-9" as="offset" />
          </mxGeometry>
        </mxCell>
        <mxCell id="bzqzzSRLQrOWmeCuMzVM-44" style="edgeStyle=orthogonalEdgeStyle;rounded=0;orthogonalLoop=1;jettySize=auto;html=1;exitX=0.5;exitY=1;exitDx=0;exitDy=0;entryX=0.5;entryY=0;entryDx=0;entryDy=0;" edge="1" parent="OCs3PD1S2fVgXAxMt-b9-176" source="bzqzzSRLQrOWmeCuMzVM-19" target="bzqzzSRLQrOWmeCuMzVM-29">
          <mxGeometry relative="1" as="geometry" />
        </mxCell>
        <mxCell id="bzqzzSRLQrOWmeCuMzVM-45" value="no" style="edgeLabel;html=1;align=center;verticalAlign=middle;resizable=0;points=[];" vertex="1" connectable="0" parent="bzqzzSRLQrOWmeCuMzVM-44">
          <mxGeometry x="-0.3048" y="1" relative="1" as="geometry">
            <mxPoint as="offset" />
          </mxGeometry>
        </mxCell>
        <mxCell id="bzqzzSRLQrOWmeCuMzVM-19" value="New line?" style="rhombus;whiteSpace=wrap;html=1;" vertex="1" parent="OCs3PD1S2fVgXAxMt-b9-176">
          <mxGeometry x="250" y="290" width="120" height="90" as="geometry" />
        </mxCell>
        <mxCell id="bzqzzSRLQrOWmeCuMzVM-46" style="edgeStyle=orthogonalEdgeStyle;rounded=0;orthogonalLoop=1;jettySize=auto;html=1;exitX=0;exitY=0.5;exitDx=0;exitDy=0;entryX=0;entryY=0.5;entryDx=0;entryDy=0;" edge="1" parent="OCs3PD1S2fVgXAxMt-b9-176" source="bzqzzSRLQrOWmeCuMzVM-29" target="bzqzzSRLQrOWmeCuMzVM-19">
          <mxGeometry relative="1" as="geometry" />
        </mxCell>
        <mxCell id="bzqzzSRLQrOWmeCuMzVM-47" value="no" style="edgeLabel;html=1;align=center;verticalAlign=middle;resizable=0;points=[];" vertex="1" connectable="0" parent="bzqzzSRLQrOWmeCuMzVM-46">
          <mxGeometry x="0.1929" y="1" relative="1" as="geometry">
            <mxPoint as="offset" />
          </mxGeometry>
        </mxCell>
        <mxCell id="bzqzzSRLQrOWmeCuMzVM-50" style="edgeStyle=orthogonalEdgeStyle;rounded=0;orthogonalLoop=1;jettySize=auto;html=1;exitX=1;exitY=0.5;exitDx=0;exitDy=0;entryX=0;entryY=0.5;entryDx=0;entryDy=0;" edge="1" parent="OCs3PD1S2fVgXAxMt-b9-176" source="bzqzzSRLQrOWmeCuMzVM-29" target="bzqzzSRLQrOWmeCuMzVM-48">
          <mxGeometry relative="1" as="geometry" />
        </mxCell>
        <mxCell id="bzqzzSRLQrOWmeCuMzVM-66" value="yes" style="edgeLabel;html=1;align=center;verticalAlign=middle;resizable=0;points=[];" vertex="1" connectable="0" parent="bzqzzSRLQrOWmeCuMzVM-50">
          <mxGeometry x="-0.1319" y="1" relative="1" as="geometry">
            <mxPoint as="offset" />
          </mxGeometry>
        </mxCell>
        <mxCell id="bzqzzSRLQrOWmeCuMzVM-29" value="Timer finished?" style="rhombus;whiteSpace=wrap;html=1;" vertex="1" parent="OCs3PD1S2fVgXAxMt-b9-176">
          <mxGeometry x="250" y="410" width="120" height="90" as="geometry" />
        </mxCell>
        <mxCell id="bzqzzSRLQrOWmeCuMzVM-36" style="edgeStyle=orthogonalEdgeStyle;rounded=0;orthogonalLoop=1;jettySize=auto;html=1;exitX=1;exitY=0.5;exitDx=0;exitDy=0;entryX=0;entryY=0.5;entryDx=0;entryDy=0;" edge="1" parent="OCs3PD1S2fVgXAxMt-b9-176" source="bzqzzSRLQrOWmeCuMzVM-32" target="bzqzzSRLQrOWmeCuMzVM-18">
          <mxGeometry relative="1" as="geometry" />
        </mxCell>
        <mxCell id="bzqzzSRLQrOWmeCuMzVM-32" value="start timer (60 min)" style="rounded=1;whiteSpace=wrap;html=1;fillColor=#f5f5f5;strokeColor=#666666;fontColor=#333333;" vertex="1" parent="OCs3PD1S2fVgXAxMt-b9-176">
          <mxGeometry x="250" y="190" width="120" height="50" as="geometry" />
        </mxCell>
        <mxCell id="bzqzzSRLQrOWmeCuMzVM-43" style="edgeStyle=orthogonalEdgeStyle;rounded=0;orthogonalLoop=1;jettySize=auto;html=1;exitX=0.5;exitY=0;exitDx=0;exitDy=0;entryX=0.5;entryY=0;entryDx=0;entryDy=0;" edge="1" parent="OCs3PD1S2fVgXAxMt-b9-176" source="bzqzzSRLQrOWmeCuMzVM-25" target="bzqzzSRLQrOWmeCuMzVM-19">
          <mxGeometry relative="1" as="geometry" />
        </mxCell>
        <mxCell id="bzqzzSRLQrOWmeCuMzVM-25" value="reset timer (30 min)" style="rounded=1;whiteSpace=wrap;html=1;fillColor=#f5f5f5;strokeColor=#666666;fontColor=#333333;" vertex="1" parent="OCs3PD1S2fVgXAxMt-b9-176">
          <mxGeometry x="550" y="310" width="120" height="50" as="geometry" />
        </mxCell>
        <mxCell id="bzqzzSRLQrOWmeCuMzVM-34" value="" style="ellipse;whiteSpace=wrap;html=1;aspect=fixed;fillColor=#000000;" vertex="1" parent="OCs3PD1S2fVgXAxMt-b9-176">
          <mxGeometry x="149.9999999999999" y="200" width="30" height="30" as="geometry" />
        </mxCell>
        <mxCell id="bzqzzSRLQrOWmeCuMzVM-35" style="edgeStyle=orthogonalEdgeStyle;rounded=0;orthogonalLoop=1;jettySize=auto;html=1;exitX=1;exitY=0.5;exitDx=0;exitDy=0;entryX=0;entryY=0.5;entryDx=0;entryDy=0;" edge="1" parent="OCs3PD1S2fVgXAxMt-b9-176" source="bzqzzSRLQrOWmeCuMzVM-34" target="bzqzzSRLQrOWmeCuMzVM-32">
          <mxGeometry relative="1" as="geometry" />
        </mxCell>
        <mxCell id="bzqzzSRLQrOWmeCuMzVM-48" value="" style="ellipse;whiteSpace=wrap;html=1;aspect=fixed;fillColor=#ffffff;" vertex="1" parent="OCs3PD1S2fVgXAxMt-b9-176">
          <mxGeometry x="445" y="440" width="30" height="30" as="geometry" />
        </mxCell>
        <mxCell id="bzqzzSRLQrOWmeCuMzVM-49" value="" style="ellipse;whiteSpace=wrap;html=1;aspect=fixed;fillColor=#000000;" vertex="1" parent="OCs3PD1S2fVgXAxMt-b9-176">
          <mxGeometry x="450" y="445" width="20" height="20" as="geometry" />
        </mxCell>
        <mxCell id="bzqzzSRLQrOWmeCuMzVM-51" style="edgeStyle=orthogonalEdgeStyle;rounded=0;orthogonalLoop=1;jettySize=auto;html=1;exitX=1;exitY=0.5;exitDx=0;exitDy=0;entryX=0.512;entryY=0;entryDx=0;entryDy=0;entryPerimeter=0;" edge="1" parent="OCs3PD1S2fVgXAxMt-b9-176" source="bzqzzSRLQrOWmeCuMzVM-16" target="bzqzzSRLQrOWmeCuMzVM-33">
          <mxGeometry relative="1" as="geometry" />
        </mxCell>
        <mxCell id="bzqzzSRLQrOWmeCuMzVM-52" value="yes" style="edgeLabel;html=1;align=center;verticalAlign=middle;resizable=0;points=[];" vertex="1" connectable="0" parent="bzqzzSRLQrOWmeCuMzVM-51">
          <mxGeometry x="-0.0653" y="4" relative="1" as="geometry">
            <mxPoint as="offset" />
          </mxGeometry>
        </mxCell>
        <mxCell id="OCs3PD1S2fVgXAxMt-b9-189" value="Scanner (Certificate)" style="swimlane;whiteSpace=wrap;html=1;" parent="1" vertex="1">
          <mxGeometry x="2290" y="845.5" width="1000" height="334.5" as="geometry" />
        </mxCell>
        <mxCell id="OCs3PD1S2fVgXAxMt-b9-190" style="edgeStyle=orthogonalEdgeStyle;rounded=0;orthogonalLoop=1;jettySize=auto;html=1;exitX=1;exitY=0.5;exitDx=0;exitDy=0;entryX=0;entryY=0.5;entryDx=0;entryDy=0;" parent="OCs3PD1S2fVgXAxMt-b9-189" source="OCs3PD1S2fVgXAxMt-b9-191" target="OCs3PD1S2fVgXAxMt-b9-195" edge="1">
          <mxGeometry relative="1" as="geometry" />
        </mxCell>
        <mxCell id="OCs3PD1S2fVgXAxMt-b9-191" value="receive certificate&lt;br&gt;scan from topic" style="shape=parallelogram;perimeter=parallelogramPerimeter;whiteSpace=wrap;html=1;fixedSize=1;fillColor=#dae8fc;strokeColor=#6c8ebf;" parent="OCs3PD1S2fVgXAxMt-b9-189" vertex="1">
          <mxGeometry x="110" y="84.5" width="140" height="70" as="geometry" />
        </mxCell>
        <mxCell id="OCs3PD1S2fVgXAxMt-b9-192" value="" style="edgeStyle=orthogonalEdgeStyle;rounded=0;orthogonalLoop=1;jettySize=auto;html=1;" parent="OCs3PD1S2fVgXAxMt-b9-189" source="OCs3PD1S2fVgXAxMt-b9-193" target="OCs3PD1S2fVgXAxMt-b9-191" edge="1">
          <mxGeometry relative="1" as="geometry" />
        </mxCell>
        <mxCell id="OCs3PD1S2fVgXAxMt-b9-193" value="" style="ellipse;whiteSpace=wrap;html=1;aspect=fixed;fillColor=#000000;" parent="OCs3PD1S2fVgXAxMt-b9-189" vertex="1">
          <mxGeometry x="30" y="104.5" width="30" height="30" as="geometry" />
        </mxCell>
        <mxCell id="OCs3PD1S2fVgXAxMt-b9-194" style="edgeStyle=orthogonalEdgeStyle;rounded=0;orthogonalLoop=1;jettySize=auto;html=1;exitX=1;exitY=0.5;exitDx=0;exitDy=0;entryX=0;entryY=0.5;entryDx=0;entryDy=0;" parent="OCs3PD1S2fVgXAxMt-b9-189" source="OCs3PD1S2fVgXAxMt-b9-195" target="OCs3PD1S2fVgXAxMt-b9-201" edge="1">
          <mxGeometry relative="1" as="geometry">
            <mxPoint x="510" y="119.54347826086973" as="targetPoint" />
            <Array as="points" />
          </mxGeometry>
        </mxCell>
        <mxCell id="OCs3PD1S2fVgXAxMt-b9-195" value="TLS Dial to server:port, receive ConnectionState&amp;nbsp;&lt;br&gt;(specify targetName as SNI)" style="rounded=1;whiteSpace=wrap;html=1;fillColor=#fff2cc;strokeColor=#d6b656;" parent="OCs3PD1S2fVgXAxMt-b9-189" vertex="1">
          <mxGeometry x="286" y="82" width="154" height="75" as="geometry" />
        </mxCell>
        <mxCell id="OCs3PD1S2fVgXAxMt-b9-196" value="" style="ellipse;whiteSpace=wrap;html=1;aspect=fixed;fillColor=#ffffff;" parent="OCs3PD1S2fVgXAxMt-b9-189" vertex="1">
          <mxGeometry x="30" y="194.5" width="30" height="30" as="geometry" />
        </mxCell>
        <mxCell id="OCs3PD1S2fVgXAxMt-b9-197" value="" style="ellipse;whiteSpace=wrap;html=1;aspect=fixed;fillColor=#000000;" parent="OCs3PD1S2fVgXAxMt-b9-189" vertex="1">
          <mxGeometry x="35" y="199.5" width="20" height="20" as="geometry" />
        </mxCell>
        <mxCell id="OCs3PD1S2fVgXAxMt-b9-198" style="edgeStyle=orthogonalEdgeStyle;rounded=0;orthogonalLoop=1;jettySize=auto;html=1;exitX=0.5;exitY=1;exitDx=0;exitDy=0;entryX=1;entryY=0.5;entryDx=0;entryDy=0;" parent="OCs3PD1S2fVgXAxMt-b9-189" source="OCs3PD1S2fVgXAxMt-b9-201" target="OCs3PD1S2fVgXAxMt-b9-203" edge="1">
          <mxGeometry relative="1" as="geometry" />
        </mxCell>
        <mxCell id="OCs3PD1S2fVgXAxMt-b9-199" value="yes" style="edgeLabel;html=1;align=center;verticalAlign=middle;resizable=0;points=[];" parent="OCs3PD1S2fVgXAxMt-b9-198" vertex="1" connectable="0">
          <mxGeometry x="-0.1497" y="-1" relative="1" as="geometry">
            <mxPoint as="offset" />
          </mxGeometry>
        </mxCell>
        <mxCell id="OCs3PD1S2fVgXAxMt-b9-200" value="no" style="edgeStyle=orthogonalEdgeStyle;rounded=0;orthogonalLoop=1;jettySize=auto;html=1;exitX=1;exitY=0.5;exitDx=0;exitDy=0;entryX=0;entryY=0.5;entryDx=0;entryDy=0;" parent="OCs3PD1S2fVgXAxMt-b9-189" source="OCs3PD1S2fVgXAxMt-b9-201" target="OCs3PD1S2fVgXAxMt-b9-205" edge="1">
          <mxGeometry relative="1" as="geometry">
            <mxPoint x="638" y="119.5" as="targetPoint" />
          </mxGeometry>
        </mxCell>
        <mxCell id="OCs3PD1S2fVgXAxMt-b9-201" value="&lt;div&gt;Timeout?&amp;nbsp;&lt;/div&gt;&lt;div&gt;(2500ms)&lt;/div&gt;" style="rhombus;whiteSpace=wrap;html=1;" parent="OCs3PD1S2fVgXAxMt-b9-189" vertex="1">
          <mxGeometry x="480" y="74.5" width="120" height="90" as="geometry" />
        </mxCell>
        <mxCell id="OCs3PD1S2fVgXAxMt-b9-202" style="edgeStyle=orthogonalEdgeStyle;rounded=0;orthogonalLoop=1;jettySize=auto;html=1;exitX=0;exitY=0.5;exitDx=0;exitDy=0;exitPerimeter=0;entryX=1;entryY=0.5;entryDx=0;entryDy=0;" parent="OCs3PD1S2fVgXAxMt-b9-189" target="OCs3PD1S2fVgXAxMt-b9-196" edge="1">
          <mxGeometry relative="1" as="geometry">
            <mxPoint x="140" y="209.5" as="sourcePoint" />
          </mxGeometry>
        </mxCell>
        <mxCell id="OCs3PD1S2fVgXAxMt-b9-203" value="store result" style="shape=datastore;whiteSpace=wrap;html=1;" parent="OCs3PD1S2fVgXAxMt-b9-189" vertex="1">
          <mxGeometry x="140" y="174.5" width="60" height="60" as="geometry" />
        </mxCell>
        <mxCell id="hqWXFLCg-u4_ckyRxF8b-5" style="edgeStyle=orthogonalEdgeStyle;rounded=0;orthogonalLoop=1;jettySize=auto;html=1;exitX=0.5;exitY=1;exitDx=0;exitDy=0;entryX=0.5;entryY=0;entryDx=0;entryDy=0;" parent="OCs3PD1S2fVgXAxMt-b9-189" source="OCs3PD1S2fVgXAxMt-b9-205" target="hqWXFLCg-u4_ckyRxF8b-2" edge="1">
          <mxGeometry relative="1" as="geometry" />
        </mxCell>
        <mxCell id="OCs3PD1S2fVgXAxMt-b9-205" value="validate TLS connection, take verification status into account" style="rounded=1;whiteSpace=wrap;html=1;fillColor=#f5f5f5;strokeColor=#666666;fontColor=#333333;" parent="OCs3PD1S2fVgXAxMt-b9-189" vertex="1">
          <mxGeometry x="650" y="74.5" width="110" height="90" as="geometry" />
        </mxCell>
        <mxCell id="hqWXFLCg-u4_ckyRxF8b-9" style="edgeStyle=orthogonalEdgeStyle;rounded=0;orthogonalLoop=1;jettySize=auto;html=1;exitX=0.5;exitY=0;exitDx=0;exitDy=0;entryX=0.5;entryY=0;entryDx=0;entryDy=0;" parent="OCs3PD1S2fVgXAxMt-b9-189" source="hqWXFLCg-u4_ckyRxF8b-1" target="OCs3PD1S2fVgXAxMt-b9-201" edge="1">
          <mxGeometry relative="1" as="geometry" />
        </mxCell>
        <mxCell id="hqWXFLCg-u4_ckyRxF8b-1" value="TLS Dial to server:port, receive ConnectionState&amp;nbsp;&lt;br&gt;(specify ttargetName as SNI)&lt;div&gt;&lt;b&gt;SkipVerification=true&lt;/b&gt;&lt;/div&gt;" style="rounded=1;whiteSpace=wrap;html=1;fillColor=#fff2cc;strokeColor=#d6b656;" parent="OCs3PD1S2fVgXAxMt-b9-189" vertex="1">
          <mxGeometry x="800" y="79.5" width="160" height="75" as="geometry" />
        </mxCell>
        <mxCell id="hqWXFLCg-u4_ckyRxF8b-4" style="edgeStyle=orthogonalEdgeStyle;rounded=0;orthogonalLoop=1;jettySize=auto;html=1;exitX=0.5;exitY=1;exitDx=0;exitDy=0;entryX=0.5;entryY=1;entryDx=0;entryDy=0;" parent="OCs3PD1S2fVgXAxMt-b9-189" source="hqWXFLCg-u4_ckyRxF8b-2" target="OCs3PD1S2fVgXAxMt-b9-203" edge="1">
          <mxGeometry relative="1" as="geometry" />
        </mxCell>
        <mxCell id="hqWXFLCg-u4_ckyRxF8b-6" value="no" style="edgeLabel;html=1;align=center;verticalAlign=middle;resizable=0;points=[];" parent="hqWXFLCg-u4_ckyRxF8b-4" vertex="1" connectable="0">
          <mxGeometry x="-0.7366" y="-3" relative="1" as="geometry">
            <mxPoint x="-180" y="-7" as="offset" />
          </mxGeometry>
        </mxCell>
        <mxCell id="hqWXFLCg-u4_ckyRxF8b-7" style="edgeStyle=orthogonalEdgeStyle;rounded=0;orthogonalLoop=1;jettySize=auto;html=1;exitX=1;exitY=0.5;exitDx=0;exitDy=0;entryX=0.5;entryY=1;entryDx=0;entryDy=0;" parent="OCs3PD1S2fVgXAxMt-b9-189" source="hqWXFLCg-u4_ckyRxF8b-2" target="hqWXFLCg-u4_ckyRxF8b-1" edge="1">
          <mxGeometry relative="1" as="geometry" />
        </mxCell>
        <mxCell id="hqWXFLCg-u4_ckyRxF8b-8" value="yes" style="edgeLabel;html=1;align=center;verticalAlign=middle;resizable=0;points=[];" parent="hqWXFLCg-u4_ckyRxF8b-7" vertex="1" connectable="0">
          <mxGeometry x="-0.0695" y="3" relative="1" as="geometry">
            <mxPoint as="offset" />
          </mxGeometry>
        </mxCell>
        <mxCell id="hqWXFLCg-u4_ckyRxF8b-2" value="&lt;div&gt;Certificate Error?&lt;/div&gt;" style="rhombus;whiteSpace=wrap;html=1;" parent="OCs3PD1S2fVgXAxMt-b9-189" vertex="1">
          <mxGeometry x="645" y="184.5" width="120" height="90" as="geometry" />
        </mxCell>
        <mxCell id="OCs3PD1S2fVgXAxMt-b9-206" value="Scanner (ODoH)" style="swimlane;whiteSpace=wrap;html=1;" parent="1" vertex="1">
          <mxGeometry x="2290" y="606.5" width="220" height="223.5" as="geometry" />
        </mxCell>
        <mxCell id="OCs3PD1S2fVgXAxMt-b9-207" value="&lt;b&gt;TBD&lt;/b&gt;" style="text;html=1;align=center;verticalAlign=middle;resizable=0;points=[];autosize=1;strokeColor=none;fillColor=none;" parent="OCs3PD1S2fVgXAxMt-b9-206" vertex="1">
          <mxGeometry x="85" y="102.5" width="50" height="30" as="geometry" />
        </mxCell>
        <mxCell id="bzqzzSRLQrOWmeCuMzVM-55" value="Scanner (EDSR)" style="swimlane;whiteSpace=wrap;html=1;" vertex="1" parent="1">
          <mxGeometry x="2534" y="606.5" width="756" height="223.5" as="geometry" />
        </mxCell>
        <mxCell id="bzqzzSRLQrOWmeCuMzVM-56" value="&lt;b&gt;TBD&lt;/b&gt;" style="text;html=1;align=center;verticalAlign=middle;resizable=0;points=[];autosize=1;strokeColor=none;fillColor=none;" vertex="1" parent="bzqzzSRLQrOWmeCuMzVM-55">
          <mxGeometry x="85" y="102.5" width="50" height="30" as="geometry" />
        </mxCell>
      </root>
    </mxGraphModel>
  </diagram>
</mxfile>
